<svg width="671" height="566" viewBox="0 0 671 566" fill="none" xmlns="http://www.w3.org/2000/svg">
<path d="M502.003 444.925C502.003 444.925 503.727 430.841 507.322 422.506C510.918 414.172 517.525 401.094 523.706 391.608C529.886 382.122 542.475 357.131 545.163 344.981C533.697 345.416 517.409 352.35 511.78 363.44C503.909 378.928 474.556 423.09 474.556 423.09L502.003 444.925Z" fill="#F4B29C"/>
<path d="M433.211 335.98C433.211 335.98 437.407 321.067 438.422 312.973C439.437 304.879 441.893 296.188 442.038 292.567C442.183 288.947 436.682 290.687 434.656 294.303C432.631 297.919 430.605 307.037 428.58 309.787C428.58 309.787 425.974 310.512 425.108 311.813C425.108 311.813 414.069 288.081 411.484 281.573C408.899 275.066 407.018 269.42 406.438 267.825C405.858 266.23 400.362 268.55 401.227 273.467C402.093 278.384 409.475 298.934 409.04 299.804C408.605 300.674 405.726 303.855 404.264 302.99C402.801 302.124 395.15 288.52 390.515 280.704C385.88 272.887 383.278 265.509 381.816 265.944C380.354 266.379 376.174 269.13 379.21 275.207C379.21 275.207 372.997 278.968 375.594 283.906C378.191 288.843 389.894 310.255 390.921 312.124C391.41 313.002 390.258 315.023 388.564 313.81C384.202 310.632 373.821 303.922 371.12 300.968C368.419 298.015 367.28 297.306 366.149 298.727C365.019 300.148 364.111 303.325 365.437 304.746C366.762 306.167 382.123 319.87 384.351 321.527C386.58 323.184 388.05 324.94 391.037 328.735C394.024 332.529 403.22 346.178 410.473 345.043C410.473 345.043 413.12 385.121 413.12 398.774C413.12 412.428 412.756 434.3 413.12 443.724C413.485 453.148 420.249 473.329 425.204 480.459C430.158 487.588 438.012 496.046 440.53 496.771C443.049 497.496 449.834 497.496 452.734 495.321C455.634 493.147 469.651 484.323 475.815 478.524C481.979 472.725 495.753 462.696 495.753 462.696L427.668 387.901L417.793 338.95C417.73 338.638 417.736 338.317 417.81 338.008C417.884 337.699 418.024 337.41 418.222 337.161C418.419 336.912 418.668 336.708 418.951 336.565C419.235 336.422 419.546 336.342 419.864 336.332L433.211 335.98Z" fill="#F4B29C"/>
<path d="M459.254 446.027C461.222 453.28 460.497 462.257 460.36 461.888" stroke="#2C2F53" stroke-width="0.828481" stroke-linecap="round" stroke-linejoin="round"/>
<path opacity="0.5" d="M468.339 417.378H432.482C431.457 417.378 430.464 417.021 429.675 416.368C428.885 415.714 428.348 414.806 428.157 413.799L413.713 337.657C413.591 337.021 413.612 336.366 413.773 335.738C413.934 335.111 414.232 334.526 414.645 334.027C415.059 333.528 415.577 333.127 416.163 332.851C416.75 332.576 417.389 332.433 418.037 332.434H453.894C454.919 332.433 455.912 332.79 456.701 333.444C457.491 334.097 458.028 335.006 458.219 336.013L472.663 412.154C472.785 412.791 472.764 413.446 472.603 414.073C472.442 414.701 472.144 415.285 471.731 415.784C471.317 416.283 470.799 416.685 470.213 416.96C469.626 417.236 468.986 417.378 468.339 417.378Z" fill="#505C7B"/>
<path d="M670.45 369.745C670.45 381.062 669.349 388.104 664.104 405.349C658.86 422.593 647.68 456.134 643.541 468.139C639.403 480.144 635.952 491.871 628.5 507.053C621.048 522.235 614.002 527.475 608.617 528.593C603.232 529.712 597.714 531.352 592.876 528.593C588.037 525.834 566.518 518.652 560.722 514.377C554.927 510.102 513.114 477.948 504.009 471.32C494.904 464.693 471.698 450.898 471.698 450.898C471.698 450.898 465.625 451.59 456.516 447.721C447.407 443.852 434.905 435.617 431.608 433.384C428.973 431.595 429.648 425.381 429.648 425.381C429.648 425.381 427.416 424.341 426.252 420.957C425.088 417.573 426.252 412.258 426.252 412.258C426.252 412.258 425.353 410.7 422.938 406.156C419.947 400.556 421.55 392.681 421.55 392.681C421.55 392.681 413.841 383.862 412.238 381.865C410.635 379.869 411.795 379.202 413.232 378.369C414.669 377.536 417.225 377.093 420.274 379.148C423.323 381.202 432.034 387.636 438.749 392.793C445.464 397.95 452.278 403.107 457.27 404.325C462.261 405.543 463.206 404.769 463.318 403.107C463.43 401.446 463.653 392.403 463.542 387.366C463.43 382.329 463.098 381.207 465.261 378.713C467.423 376.219 470.753 374.943 471.139 377.822C471.524 380.701 473.968 393.41 474.411 398.012C474.854 402.615 475.02 406.5 475.965 408.882C476.909 411.264 480.235 419.201 479.958 424.134C479.958 424.134 492.886 430.982 500.57 434.76L501.42 435.174C508.963 438.832 535.698 450.679 548.009 455.749C562.093 461.549 579.334 462.344 590.995 471.345C590.995 471.345 595.262 459.237 599.056 450.31C602.851 441.383 614.018 400.991 614.018 400.991C611.429 372.325 603.882 355.888 604.536 334.634C605.527 335.555 606.571 336.417 607.664 337.214C610.336 339.186 614.383 341.63 618.405 342.032C625.302 342.72 647.245 344.65 654.56 346.174C661.876 347.699 670.45 358.428 670.45 369.745Z" fill="#F4B29C"/>
<path d="M614.043 400.966C618.421 387.378 620.323 379.148 620.323 379.148" stroke="#2C2F53" stroke-width="0.828481" stroke-linecap="round" stroke-linejoin="round"/>
<path d="M591.02 471.32C595.605 474.709 602.167 483.482 603.795 487.248" stroke="#2C2F53" stroke-width="0.828481" stroke-linecap="round" stroke-linejoin="round"/>
<path d="M479.502 419.474C479.859 420.992 480.019 422.55 479.978 424.109C479.978 424.109 490.699 429.788 498.42 433.637" stroke="#2C2F53" stroke-width="0.828481" stroke-linecap="round" stroke-linejoin="round"/>
<path d="M488.781 461.292C480.119 455.873 471.739 450.886 471.739 450.886C471.739 450.886 465.666 451.578 456.557 447.709C447.448 443.84 434.946 435.604 431.649 433.372C429.014 431.582 429.689 425.369 429.689 425.369C429.689 425.369 427.457 424.329 426.293 420.945C425.129 417.56 426.293 412.245 426.293 412.245C426.293 412.245 425.394 410.688 422.979 406.144C419.988 400.543 421.591 392.668 421.591 392.668C421.591 392.668 413.882 383.849 412.279 381.853C410.676 379.856 411.836 379.189 413.273 378.356C414.71 377.524 417.266 377.081 420.315 379.135" stroke="#2C2F53" stroke-width="0.828481" stroke-linecap="round" stroke-linejoin="round"/>
<path d="M606.984 336.655C592.855 355.296 577.292 353.751 568.361 350.163C559.43 346.576 559.359 340.222 559.359 340.222C559.359 340.222 560.987 338.366 561.24 336.663C561.356 335.889 561.488 334.083 561.588 331.692C561.704 328.822 561.778 325.114 561.704 321.336C558.517 321.887 555.247 321.709 552.139 320.814C551.199 320.546 550.28 320.209 549.388 319.808C542.164 316.539 531.108 298.682 529.285 293.466C527.463 288.251 518.627 273.363 514.472 250.319C510.317 227.275 541.94 217.134 542.197 217.395C542.454 217.656 591.152 251.616 591.152 251.616C598.948 250.315 604.926 252.137 605.013 262.448C605.1 272.758 597.051 275.641 597.051 275.641C597.051 305.773 604.561 334.629 604.561 334.629L606.984 336.655Z" fill="#F4B29C"/>
<path opacity="0.3" d="M573.033 286.378C578.49 286.378 582.913 281.955 582.913 276.499C582.913 271.042 578.49 266.619 573.033 266.619C567.577 266.619 563.154 271.042 563.154 276.499C563.154 281.955 567.577 286.378 573.033 286.378Z" fill="#DC6437"/>
<path d="M552.612 207.499C546.369 199.823 544.836 200.457 544.426 193.377C544.016 186.298 545.553 182.736 549.542 180.996C553.531 179.256 557.317 178.233 557.218 175.06C557.118 171.887 554.969 165.748 559.778 161.858C564.587 157.968 568.576 161.444 572.16 162.778C575.743 164.111 579.732 165.13 581.985 163.494C584.239 161.858 595.494 161.038 599.176 167.893C602.859 174.749 602.246 182.529 600.833 185.706C600.833 185.706 609.019 189.492 609.429 195.324C609.839 201.157 609.429 201.463 603.596 207.503C603.596 207.503 608.89 213.849 607.01 217.859C605.129 221.869 601.753 224.102 599.093 224.305C596.434 224.508 586.099 225.133 586.099 225.133L552.612 207.499Z" fill="#2C2F53"/>
<path d="M570.709 176.837C571.737 169.633 583.638 167.831 584.665 178.316" stroke="#505C7B" stroke-width="0.828481" stroke-linecap="round" stroke-linejoin="round"/>
<path d="M583.911 175.172C587.934 167.881 597.859 170.006 596.252 180.217" stroke="#505C7B" stroke-width="0.828481" stroke-linecap="round" stroke-linejoin="round"/>
<path d="M559.243 209.914C557.823 202.457 558.092 198.87 560.871 195.212C563.651 191.555 571.712 189.591 574.761 194.127C577.81 198.663 573.825 200.8 571.981 198.684C569.409 195.701 571.915 182.831 584.379 185.337" stroke="#505C7B" stroke-width="0.828481" stroke-linecap="round" stroke-linejoin="round"/>
<path opacity="0.25" d="M660.914 406.272C660.914 406.272 659.527 414.557 657.671 425.675C655.214 440.368 651.954 460.057 649.995 472.273C646.557 493.739 639.324 526 638.583 531.509C637.141 542.317 638.583 550.15 638.583 550.15C626.078 554.363 613.356 557.902 600.472 560.751C597.188 561.455 593.613 562.08 589.897 562.627C584.769 563.385 579.354 563.994 574.019 564.454C560.018 565.651 546.514 565.833 539.882 564.98C528.892 563.568 519.584 557.938 519.306 554.831C519.029 551.724 519.024 535.387 517.334 518.196C516.067 505.313 511.842 484.97 509.799 475.575C509.124 472.435 508.681 470.513 508.681 470.513C508.681 470.513 553.957 505.503 559.844 509.306C565.73 513.109 583.621 521.539 593.683 525.097C603.745 528.655 608.695 526.302 618.388 515.155C628.082 504.008 632.228 488.097 633.823 483.673C647.451 445.894 660.914 406.272 660.914 406.272Z" fill="#F06082"/>
<path opacity="0.25" d="M617.183 400.398C600.493 459.908 591.243 475.533 591.243 475.533C584.081 467.932 546.687 459.916 537.62 455.235C528.552 450.554 508.325 441.673 499.99 438.164C500.164 437.01 500.366 435.867 500.595 434.735C505.367 410.804 521.34 392.068 531.423 370.701C538.568 355.577 541.737 345.358 541.737 345.358C541.737 345.358 545.71 344.985 552.669 343.991C559.628 342.997 561.24 336.659 561.24 336.659C562.482 343.121 567.702 350.329 581.989 348.833C596.276 347.338 604.548 334.608 604.548 334.608C605.539 335.53 606.583 336.392 607.676 337.189C607.067 344.799 609.867 356.625 611.669 365.113C613.794 375.059 617.183 400.398 617.183 400.398Z" fill="#F06082"/>
<path d="M557.213 367.354C561.732 367.354 565.394 363.691 565.394 359.173C565.394 354.655 561.732 350.992 557.213 350.992C552.695 350.992 549.032 354.655 549.032 359.173C549.032 363.691 552.695 367.354 557.213 367.354Z" stroke="white" stroke-width="1.24272" stroke-linecap="round" stroke-linejoin="round"/>
<path d="M424.23 346.518C425.751 346.518 426.985 345.285 426.985 343.763C426.985 342.242 425.751 341.009 424.23 341.009C422.709 341.009 421.475 342.242 421.475 343.763C421.475 345.285 422.709 346.518 424.23 346.518Z" fill="#2C2F53"/>
<path d="M430.303 343.771C430.904 343.771 431.392 343.284 431.392 342.682C431.392 342.08 430.904 341.593 430.303 341.593C429.701 341.593 429.213 342.08 429.213 342.682C429.213 343.284 429.701 343.771 430.303 343.771Z" fill="white"/>
<path d="M426.036 353.746C427.558 353.746 428.791 352.513 428.791 350.992C428.791 349.47 427.558 348.237 426.036 348.237C424.515 348.237 423.281 349.47 423.281 350.992C423.281 352.513 424.515 353.746 426.036 353.746Z" fill="#2C2F53"/>
<path opacity="0.5" d="M433.699 369.947C434.114 372.909 437.162 372.979 438.62 370.506C440.46 367.387 442.9 364.906 443.939 367.826C444.979 370.747 441.139 375.788 437.581 376.028C434.022 376.269 432.461 373.907 433.699 369.947Z" fill="#505C7B"/>
<path d="M421.579 392.66C427.287 400.407 437.858 410.613 437.858 410.613" stroke="#2C2F53" stroke-width="0.828481" stroke-linecap="round" stroke-linejoin="round"/>
<path d="M426.293 412.241C433.066 418.869 437.859 422.05 437.859 422.05" stroke="#2C2F53" stroke-width="0.828481" stroke-linecap="round" stroke-linejoin="round"/>
<path d="M429.689 425.368C432.367 426.939 434.896 428.75 437.245 430.778" stroke="#2C2F53" stroke-width="0.828481" stroke-linecap="round" stroke-linejoin="round"/>
<path d="M425.108 311.813C420.733 316.838 419.002 321.937 418.695 324.178" stroke="#2C2F53" stroke-width="0.828481" stroke-linecap="round" stroke-linejoin="round"/>
<path d="M379.235 275.202C385.15 285.401 396.671 306.95 396.671 306.95" stroke="#2C2F53" stroke-width="0.828481" stroke-linecap="round" stroke-linejoin="round"/>
<path opacity="0.5" d="M561.783 391.156C560.954 394.553 562.064 397.308 564.227 397.308C566.389 397.308 568.783 394.553 569.612 391.156C570.44 387.76 569.33 385.005 567.168 385.005C565.005 385.005 562.595 387.76 561.783 391.156Z" fill="#F06082"/>
<path d="M593.298 292.514C591.935 295.343 589.454 298.806 586.401 302.389C582.146 307.345 577.474 311.926 572.437 316.084C568.013 319.704 563.899 320.964 561.7 321.336" stroke="#2C2F53" stroke-width="0.828481" stroke-linecap="round" stroke-linejoin="round"/>
<path d="M597.051 275.641C595.754 266.164 590.68 254.291 590.68 254.291" stroke="#2C2F53" stroke-width="0.828481" stroke-linecap="round" stroke-linejoin="round"/>
<path opacity="0.75" d="M560.138 343.109C556.766 351.455 564.015 380.577 565.697 381.807C567.379 383.037 569.106 382.71 570.585 381.807C572.064 380.904 587.2 370.042 604.234 340.014" stroke="#F06082" stroke-width="0.828481" stroke-linecap="round" stroke-linejoin="round"/>
<path d="M538.743 209.914C538.743 209.914 546.199 201.115 556.141 202.706C566.083 204.297 565.822 207.242 570.225 208.22C574.628 209.197 585.419 208.833 589.462 215.204C593.505 221.575 592.776 230.154 592.776 230.154C592.776 230.154 598.534 237.018 599.64 241.549C600.746 246.081 600.17 252.659 593.551 253.148C593.889 255.942 593.382 258.772 592.097 261.276C589.955 265.319 586.036 272.303 586.525 278.185C587.014 284.067 593.025 288.214 597.043 291.283C603.207 295.993 606.985 308.681 590.204 307.998C590.204 307.998 594.698 305.098 593.857 298.512C593.016 291.925 589.471 290.434 584.545 288.069C579.62 285.703 577.255 282.944 576.26 278.611C575.266 274.279 582.366 266.888 582.172 261.768C581.977 256.648 579.885 244.925 570.49 240.195C561.095 235.464 548.68 237.635 534.203 226.206C534.203 226.206 527.21 227.192 522.972 235.464C518.735 243.737 518.441 244.627 518.54 253.587C518.64 262.547 519.327 266.222 520.114 267.489C520.901 268.757 526.129 280.906 527.699 287.178C529.269 293.45 530.068 295.877 525.334 299.787C519.12 304.907 511.345 312.592 522.674 317.517C522.674 317.517 514.253 321.224 511.983 311.117C509.713 301.009 522.086 289.361 521.746 282.278C521.407 275.194 513.018 267.402 510.562 263.637C508.105 259.871 508.337 252.171 508.565 246.831C508.793 241.491 511.291 225.597 518.669 218.559C526.046 211.521 533.126 208.725 538.743 209.914Z" fill="#2C2F53"/>
<path d="M538.742 209.914C538.742 209.914 546.199 201.115 556.141 202.706C566.082 204.297 565.821 207.242 570.225 208.22C574.628 209.197 585.419 208.833 589.462 215.204C593.505 221.575 592.776 230.154 592.776 230.154" stroke="#505C7B" stroke-width="0.828481" stroke-linecap="round" stroke-linejoin="round"/>
<path d="M508.445 249.772C512.711 233.977 521.924 223.675 532.785 219.831" stroke="#505C7B" stroke-width="0.828481" stroke-linecap="round" stroke-linejoin="round"/>
<path d="M534.219 226.223C535.325 218.625 538.742 209.914 538.742 209.914" stroke="#505C7B" stroke-width="0.828481" stroke-linecap="round" stroke-linejoin="round"/>
<path d="M538.146 211.521C544.215 207.516 553.253 206.41 557.495 208.622C561.737 210.834 563.767 213.696 570.593 213.141C577.42 212.586 589.156 213.787 592.784 230.158" stroke="#505C7B" stroke-width="0.828481" stroke-linecap="round" stroke-linejoin="round"/>
<path d="M537.628 219.831C543.941 217.345 551.481 216.641 557.794 219.831C564.107 223.02 565.416 229.578 573.042 232.444C580.668 235.311 584.438 232.859 585.258 229.412C586.078 225.966 581.733 222.689 579.931 227.2C578.129 231.711 581.244 239.006 584.848 240.725C588.452 242.444 593.132 245.965 593.547 253.152" stroke="#505C7B" stroke-width="0.828481" stroke-linecap="round" stroke-linejoin="round"/>
<path d="M530.396 275.318C531.725 275.318 532.802 274.241 532.802 272.912C532.802 271.582 531.725 270.505 530.396 270.505C529.066 270.505 527.989 271.582 527.989 272.912C527.989 274.241 529.066 275.318 530.396 275.318Z" fill="#2C2F53"/>
<path d="M558.494 269.225C559.823 269.225 560.9 268.147 560.9 266.818C560.9 265.489 559.823 264.411 558.494 264.411C557.164 264.411 556.087 265.489 556.087 266.818C556.087 268.147 557.164 269.225 558.494 269.225Z" fill="#2C2F53"/>
<path d="M525.358 271.598C525.872 272.924 529.041 273.123 529.43 272.911" stroke="#2C2F53" stroke-width="0.828481" stroke-linecap="round" stroke-linejoin="round"/>
<path d="M558.804 266.619C560.275 266.425 563.245 265.563 563.908 263.773" stroke="#2C2F53" stroke-width="0.828481" stroke-linecap="round" stroke-linejoin="round"/>
<path d="M533.676 258.753C539.857 265.285 541.998 269.225 542.827 288.068" stroke="#2C2F53" stroke-width="0.828481" stroke-linecap="round" stroke-linejoin="round"/>
<path d="M537.628 288.069C539.306 289.581 540.752 290.885 541.642 290.885C542.533 290.885 546.588 291.022 547.413 290.542C548.237 290.061 557.027 284.883 557.027 284.883" stroke="#2C2F53" stroke-width="0.828481" stroke-linecap="round" stroke-linejoin="round"/>
<path d="M558.493 311.229C560.461 310.678 562.52 308.412 562.52 308.412" stroke="#2C2F53" stroke-width="0.828481" stroke-linecap="round" stroke-linejoin="round"/>
<path d="M544.36 248.79C545.027 247.738 552.189 245.062 554.736 244.876C557.284 244.689 571.447 244.656 574.119 253.161C574.119 253.161 570.009 246.065 560.54 248.364C551.07 250.663 546.042 251.471 545.213 250.973C544.385 250.476 544.028 249.312 544.36 248.79Z" fill="#2C2F53"/>
<path d="M516.97 257.241C519.331 255.687 523.801 254.209 527.989 254.569C529.43 254.693 529.231 258.049 527.392 258.111C525.553 258.173 521.502 257.738 517.649 259.353L516.97 257.241Z" fill="#2C2F53"/>
<path d="M516.97 311.875C516.212 304.808 520.214 301.705 522.272 296.055C524.331 290.405 527.164 279.071 519.576 275.695" stroke="#505C7B" stroke-width="0.828481" stroke-linecap="round" stroke-linejoin="round"/>
<path d="M555.366 295.421C549.355 295.206 545.946 297.157 547.326 300.339C548.705 303.52 554.098 308.582 557.383 307.356C563.904 304.924 568.377 296.967 567.222 290.915C565.873 291.486 564.419 291.768 562.955 291.743C560.354 291.735 557.74 291.445 555.366 295.421Z" fill="#2C2F53"/>
<path d="M568.734 288.628C567.843 290.307 566.565 291.75 565.005 292.837C560.921 295.885 554.778 297.907 549.753 299.183C548.838 299.419 547.964 299.626 547.143 299.812" stroke="#2C2F53" stroke-width="0.828481" stroke-linecap="round" stroke-linejoin="round"/>
<path d="M565.958 294.771C566.103 297.343 553.916 301.937 552.769 302.049C551.833 302.145 550.461 300.624 549.753 299.183C554.778 297.907 560.938 295.869 565.005 292.837C565.474 293.143 565.896 293.715 565.958 294.771Z" fill="white"/>
<path d="M586.401 302.389C585.39 307.256 583.555 314.534 581.741 318.669C579.185 324.501 571.799 331.51 561.584 331.68C561.7 328.809 561.775 325.102 561.7 321.324C563.9 320.951 568.013 319.692 572.437 316.071C577.474 311.918 582.146 307.34 586.401 302.389Z" fill="#2C2F53"/>
<path d="M589.976 527.18C589.461 528.292 589.202 529.504 589.218 530.729C589.234 531.953 589.525 533.158 590.069 534.256C590.613 535.353 591.396 536.314 592.36 537.068C593.325 537.823 594.447 538.351 595.643 538.615C596.838 538.878 598.078 538.87 599.271 538.59C600.463 538.311 601.577 537.767 602.532 537C603.486 536.233 604.256 535.261 604.785 534.157C605.314 533.052 605.589 531.843 605.588 530.619C605.589 530.161 605.552 529.703 605.476 529.252" stroke="white" stroke-width="1.24272" stroke-linecap="round" stroke-linejoin="round"/>
<path d="M597.407 393.186C601.926 393.186 605.589 389.523 605.589 385.005C605.589 380.486 601.926 376.824 597.407 376.824C592.889 376.824 589.226 380.486 589.226 385.005C589.226 389.523 592.889 393.186 597.407 393.186Z" stroke="white" stroke-width="1.24272" stroke-linecap="round" stroke-linejoin="round"/>
<path d="M563.551 425.559C568.07 425.559 571.733 421.896 571.733 417.378C571.733 412.86 568.07 409.197 563.551 409.197C559.033 409.197 555.37 412.86 555.37 417.378C555.37 421.896 559.033 425.559 563.551 425.559Z" stroke="white" stroke-width="1.24272" stroke-linecap="round" stroke-linejoin="round"/>
<path d="M589.926 561.803C589.925 562.079 589.91 562.356 589.88 562.631C584.752 563.389 579.338 563.998 574.003 564.458C573.615 563.333 573.477 562.138 573.598 560.955C573.719 559.771 574.097 558.629 574.704 557.606C575.312 556.584 576.136 555.706 577.117 555.034C578.099 554.362 579.215 553.913 580.388 553.716C581.561 553.519 582.763 553.581 583.91 553.896C585.057 554.211 586.121 554.773 587.029 555.541C587.937 556.31 588.667 557.267 589.167 558.346C589.667 559.426 589.926 560.601 589.926 561.79V561.803Z" stroke="white" stroke-width="1.24272" stroke-linecap="round" stroke-linejoin="round"/>
<path d="M527.836 510.768C532.354 510.768 536.017 507.105 536.017 502.587C536.017 498.069 532.354 494.406 527.836 494.406C523.317 494.406 519.654 498.069 519.654 502.587C519.654 507.105 523.317 510.768 527.836 510.768Z" stroke="white" stroke-width="1.24272" stroke-linecap="round" stroke-linejoin="round"/>
<path d="M526.651 436.255C531.169 436.255 534.832 432.592 534.832 428.074C534.832 423.555 531.169 419.892 526.651 419.892C522.133 419.892 518.47 423.555 518.47 428.074C518.47 432.592 522.133 436.255 526.651 436.255Z" stroke="white" stroke-width="1.24272" stroke-linecap="round" stroke-linejoin="round"/>
<path d="M594.516 422.05C597.901 422.05 600.646 419.306 600.646 415.92C600.646 412.534 597.901 409.789 594.516 409.789C591.13 409.789 588.385 412.534 588.385 415.92C588.385 419.306 591.13 422.05 594.516 422.05Z" stroke="white" stroke-width="1.24272" stroke-linecap="round" stroke-linejoin="round"/>
<path d="M559.566 530.089C562.952 530.089 565.697 527.344 565.697 523.958C565.697 520.572 562.952 517.827 559.566 517.827C556.18 517.827 553.436 520.572 553.436 523.958C553.436 527.344 556.18 530.089 559.566 530.089Z" stroke="white" stroke-width="1.24272" stroke-linecap="round" stroke-linejoin="round"/>
<path d="M627.295 546.712C630.681 546.712 633.425 543.967 633.425 540.581C633.425 537.195 630.681 534.451 627.295 534.451C623.909 534.451 621.164 537.195 621.164 540.581C621.164 543.967 623.909 546.712 627.295 546.712Z" stroke="white" stroke-width="1.24272" stroke-linecap="round" stroke-linejoin="round"/>
<path d="M583.634 460.09C587.02 460.09 589.765 457.345 589.765 453.96C589.765 450.574 587.02 447.829 583.634 447.829C580.248 447.829 577.503 450.574 577.503 453.96C577.503 457.345 580.248 460.09 583.634 460.09Z" stroke="white" stroke-width="1.24272" stroke-linecap="round" stroke-linejoin="round"/>
<path d="M540.051 556.956C543.437 556.956 546.182 554.211 546.182 550.825C546.182 547.44 543.437 544.695 540.051 544.695C536.666 544.695 533.921 547.44 533.921 550.825C533.921 554.211 536.666 556.956 540.051 556.956Z" stroke="white" stroke-width="1.24272" stroke-linecap="round" stroke-linejoin="round"/>
<path d="M549.235 394.955C552.621 394.955 555.366 392.21 555.366 388.824C555.366 385.438 552.621 382.694 549.235 382.694C545.849 382.694 543.104 385.438 543.104 388.824C543.104 392.21 545.849 394.955 549.235 394.955Z" stroke="white" stroke-width="1.24272" stroke-linecap="round" stroke-linejoin="round"/>
<path opacity="0.5" d="M270.12 20.1917H52.6438C52.9583 14.9975 55.2433 10.1192 59.0324 6.55255C62.8215 2.98591 67.829 0.999895 73.0327 0.999908H249.735C254.938 1.00095 259.945 2.98744 263.733 6.55396C267.521 10.1205 269.806 14.9982 270.12 20.1917Z" fill="#505C7B"/>
<path opacity="0.5" d="M52.6105 296.511V21.4178C52.6105 21.0036 52.6105 20.5893 52.6436 20.1751C52.9622 14.9839 55.2489 10.1097 59.0376 6.54651C62.8263 2.98336 67.8315 0.999638 73.0325 0.999908H249.735C254.939 0.999895 259.946 2.98591 263.735 6.55255C267.524 10.1192 269.809 14.9975 270.124 20.1917C270.124 20.6059 270.157 21.0201 270.157 21.4344V305.516" stroke="#505C7B" stroke-width="1.24272" stroke-linecap="round" stroke-linejoin="round"/>
<path opacity="0.5" d="M270.157 403.476V413.19C270.157 413.679 270.157 414.168 270.107 414.644C269.738 419.794 267.431 424.614 263.651 428.131C259.871 431.649 254.899 433.605 249.735 433.604H73.0325C70.3509 433.604 67.6954 433.077 65.2177 432.051C62.74 431.025 60.4886 429.521 58.5922 427.625C56.6958 425.729 55.1914 423.478 54.1651 421.001C53.1387 418.523 52.6105 415.868 52.6105 413.186" stroke="#505C7B" stroke-width="1.24272" stroke-linecap="round" stroke-linejoin="round"/>
<path d="M114.386 243.782C113.943 243.339 102.522 233.55 96.7395 229.4C90.9567 225.249 85.7663 220.502 85.468 209.678C85.1698 198.854 90.5093 193.663 94.8092 189.956C99.109 186.248 110.53 176.46 113.197 171.729C114.44 169.546 117.795 160.607 126.246 155.864C134.485 151.237 144.771 151.978 151.9 161.352C151.9 161.352 163.478 159.219 171.029 165.06C179.438 171.564 190.776 199.533 175.172 219.035C158.859 239.429 114.386 243.782 114.386 243.782Z" fill="#2C2F53"/>
<path d="M108.964 234.888C113.607 231.45 120.012 228.186 120.517 218.77C121.022 209.355 118.885 189.015 121.018 181.228C123.151 173.44 128.677 165.155 137.339 166.033" stroke="#505C7B" stroke-width="0.828481" stroke-linecap="round" stroke-linejoin="round"/>
<path d="M87.5231 219.305C98.169 219.76 106.081 213.986 108.968 206.703C111.856 199.421 113.239 189.376 112.986 182.847C112.734 176.319 115.124 169.14 116.756 165.134" stroke="#505C7B" stroke-width="0.828481" stroke-linecap="round" stroke-linejoin="round"/>
<path d="M87.5231 210.357C102.137 201.443 110.621 194.819 110.045 175.78" stroke="#505C7B" stroke-width="0.828481" stroke-linecap="round" stroke-linejoin="round"/>
<path d="M184.923 246.065C183.962 251.951 181.908 260.302 180.673 263.314C179.439 266.325 171.088 268.931 171.088 268.931C171.68 272.759 172.52 276.545 173.602 280.264C175.653 287.282 177.798 291.233 177.798 291.797C176.97 300.285 169.588 303.3 153.698 300.425C137.808 297.551 130.695 283.856 130.695 283.856C130.695 283.856 130.281 279.063 129.597 277.008C128.914 274.954 121.797 250.994 121.797 250.994C110.981 255.783 102.489 240.037 107.551 234.884C112.613 229.731 116.453 235.659 116.453 235.659C126.039 231.686 128.914 219.367 128.914 219.367C153.284 205.946 146.647 194.293 146.85 179.654C146.991 169.654 153.014 168.291 153.014 168.291C159.998 191.567 176.564 194.993 176.564 194.993C176.564 194.993 176.705 201.016 177.115 203.891C177.525 206.766 183.001 223.062 184.919 228.542C186.837 234.023 185.876 240.178 184.923 246.065Z" fill="#F4B29C"/>
<path d="M163.238 200.117C165.955 197.193 168.254 196.774 170.619 196.704C172.985 196.633 178.49 198.41 178.49 198.41L177.517 193.709C177.517 193.709 169.555 191.973 166.303 193.709C163.586 195.159 163.238 200.117 163.238 200.117Z" fill="#2C2F53"/>
<path d="M274.101 395.357C274.101 395.357 293.549 409.126 297.443 410.597C301.337 412.067 306.515 416.81 307.712 417.013C308.909 417.216 319.957 417.751 321.535 417.013C323.114 416.276 325.744 412.805 329.742 410.071C333.739 407.337 345.628 387.134 347.206 374.931C348.784 362.727 351.415 330.938 352.691 318.722C353.966 306.506 357.214 275.165 360.056 272.009C362.897 268.852 366.472 268.748 368.891 261.909C371.311 255.07 372.678 252.125 372.678 249.283C372.678 246.442 373.204 244.337 376.257 239.814C379.31 235.29 385.892 223.696 386.778 221.927C388.079 219.33 384.918 213.356 383.547 214.591C381.89 216.094 372.876 231.744 370.967 233.998C370.304 234.777 368.022 234.512 368.365 232.589C368.709 230.667 371.592 216.02 372.831 211.157C374.069 206.293 373.916 201.907 368.017 199.628C368.017 199.628 369.049 197.019 366.439 194.682C363.829 192.346 361.149 191.178 360.325 194.682C359.501 198.187 353.531 227.059 352.91 228.323C352.152 229.855 348.718 229.789 348.718 228.824C348.718 227.859 349.062 207.184 348.925 204.574C348.788 201.965 342.467 198.734 341.233 200.179C339.998 201.625 340.201 229.441 339.857 231.914C339.514 234.387 338.2 237.548 338.2 242.684C338.2 242.684 336.208 243.927 335.591 244.95C335.591 244.95 328.515 235.812 326.25 232.656C323.984 229.499 317.911 230.816 317.045 231.761C316.291 232.589 317.045 233.832 320.616 239.934C324.187 246.036 331.196 257.862 332.43 260.679C333.664 263.496 336.071 267.825 337.993 268.852C337.993 268.852 337.786 270.981 335.657 280.186C333.528 289.39 328.167 309.245 323.429 320.922C319.613 330.325 312.658 345.631 309.17 351.004L307.837 349.463C307.642 349.745 307.48 349.964 307.356 350.118C305.62 352.317 301.925 356.298 300.894 368.253L274.101 395.357Z" fill="#F4B29C"/>
<path d="M134.361 435.48C134.361 435.48 135.513 435.666 137.832 441.909C140.328 448.823 145.416 454.493 152.02 457.721C156.751 460.011 159.555 461.416 159.555 461.416C159.555 461.416 161.697 464.075 164.062 469.837C166.427 475.599 167.459 478.259 167.239 481.361C167.02 484.464 165.098 489.12 165.686 491.854C166.274 494.588 172.484 497.985 173.813 497.542C175.143 497.098 177.065 483.652 177.653 480.558C178.242 477.463 174.754 469.104 174.754 469.104C174.754 469.104 183.693 482.993 188.055 486.763C192.417 490.533 197.168 485.205 197.168 485.205C203.842 485.798 208.013 482.032 206.215 479.572C205.026 477.944 188.946 454.846 188.946 454.846C188.946 454.846 203.398 464.15 206.514 466.08C209.629 468.01 214.541 463.491 215.283 462.008C216.024 460.525 213.336 458.073 205.755 453.773C198.175 449.473 188.85 441.168 185.143 438.351C181.435 435.534 170.168 426.044 160.678 419.221C151.188 412.399 146.445 409.731 142.451 410.174C138.458 410.617 131.035 408.989 119.171 407.8C107.307 406.612 76.3923 399.246 73.7867 398.927L75.0295 396.827C70.4956 395.35 65.8731 394.161 61.1897 393.265C49.591 384.462 34.2061 389.756 34.2061 389.756L16.692 380.179C16.692 380.179 8.40719 394.263 4.1778 405.315C-0.0515952 416.367 -0.378845 417.742 0.242516 421.967C0.863876 426.193 2.36342 427.721 4.93585 427.87C7.50829 428.02 9.49249 432.564 20.0763 434.531C30.6602 436.499 134.361 435.48 134.361 435.48Z" fill="#F4B29C"/>
<path opacity="0.25" d="M309.166 351.033C304.97 356.646 302.7 370.399 302.7 370.399C294.726 379.757 277.233 396.699 270.157 403.48C268.244 405.311 267.092 406.38 267.092 406.38L270.108 414.632C269.738 419.782 267.431 424.601 263.651 428.119C259.871 431.637 254.899 433.592 249.735 433.591H174.567C167.525 428.417 153.71 418.264 151.44 416.081C148.358 413.149 143.81 413.596 141.606 413.596C139.402 413.596 111.367 410.079 111.367 410.079C111.367 410.079 107.038 399.744 102.962 390.22C101.52 386.853 100.116 383.592 98.9394 380.908C97.6967 378.087 96.7274 375.937 96.2468 375.001C94.8593 372.18 93.9201 369.16 93.4632 366.049L88.0076 375.163L81.7112 385.689L73.7992 398.919C73.7992 398.919 62.6437 398.041 59.715 396.132C57.531 394.793 55.1337 393.839 52.6273 393.311C43.7999 391.239 33.4397 392.61 33.4397 392.61C33.4397 392.61 16.4559 386.434 6.03357 375.825C6.03357 375.825 9.89014 369.413 15.6232 359.774C17.1932 357.139 18.904 354.26 20.7184 351.203C22.1972 348.718 23.7506 346.091 25.3372 343.39C30.9543 333.863 37.1265 323.349 42.8885 313.383C44.0291 311.411 45.1503 309.464 46.2522 307.542C48.4311 303.748 50.5313 300.011 52.6273 296.503C58.348 286.888 64.0272 278.955 71.0072 276.134C84.9381 270.526 104.146 275.67 112.771 278.578C116.294 279.707 119.894 280.585 123.541 281.205C129.158 282.215 133.847 282.65 133.847 282.65C136.584 286.43 139.867 289.78 143.59 292.592C149.754 297.248 158.971 299.253 166.767 298.673C174.563 298.093 174.223 290.297 174.223 290.297C178.76 289.493 183.241 288.397 187.637 287.016L188.515 286.718C194.799 284.51 226.211 274.966 238.203 276.569C245.436 277.534 256.38 286.925 259.768 292.078C261.011 293.972 263.401 297.099 266.172 300.591C267.44 302.182 268.782 303.847 270.137 305.512C273.865 310.069 277.63 314.588 280 317.343L285.041 323.175L290.169 329.095L296.859 336.829L309.166 351.033Z" fill="#54C3E5"/>
<path opacity="0.25" d="M285.061 323.184C279.676 329.704 268.119 340.143 244.209 350.379C222.482 359.678 178.009 365.167 143.134 368.129C115.583 370.465 94.0884 372.47 94.105 364.844C94.105 364.844 45.4483 352.272 25.3411 343.403C30.9582 333.875 37.1303 323.362 42.8924 313.395C53.7497 314.957 61.322 316.651 69.3003 320.052C82.4441 325.644 90.5094 330.955 111.292 330.255C132.074 329.555 155.147 329.7 176.116 327.181C197.085 324.662 208.274 326.767 229.665 318.929C244.048 313.664 258.368 305.433 266.205 300.599C267.473 302.19 268.815 303.855 270.17 305.52C273.898 310.077 277.663 314.596 280.033 317.351L285.061 323.184Z" fill="#54C3E5"/>
<path opacity="0.25" d="M296.88 336.837C291.673 340.727 280.037 349.264 267.092 357.669C249.545 369.052 216.82 381.687 176.725 387.387C146.85 391.624 116.486 390.883 102.953 390.224C101.512 386.856 100.107 383.596 98.9309 380.912C109.908 381.082 137.041 381.239 156.875 379.172C182.289 376.513 225.788 368.675 250.572 356.281C269.457 346.841 284.229 334.467 290.19 329.107L296.88 336.837Z" fill="#54C3E5"/>
<path opacity="0.25" d="M187.653 287.025C183.734 303.267 172.579 309.903 153.685 307.053C136.933 304.526 127.327 292.074 123.541 281.205C129.158 282.215 133.847 282.65 133.847 282.65C136.583 286.43 139.867 289.78 143.59 292.592C149.754 297.248 158.971 299.253 166.767 298.673C174.563 298.093 174.223 290.297 174.223 290.297C178.765 289.496 183.251 288.403 187.653 287.025Z" fill="#54C3E5"/>
<path d="M103.318 351.253C106.814 346.696 110.008 342.906 111.259 341.311" stroke="#54C3E5" stroke-width="1.24272" stroke-linecap="round" stroke-linejoin="round"/>
<path d="M93.4547 366.054C95.3395 362.421 98.0652 358.369 100.841 354.579" stroke="#54C3E5" stroke-width="1.24272" stroke-linecap="round" stroke-linejoin="round"/>
<path d="M98.6538 360.312C98.6538 360.312 105.882 355.789 112.079 354.575" stroke="#54C3E5" stroke-width="1.24272" stroke-linecap="round" stroke-linejoin="round"/>
<path d="M238.513 331.908C238.513 336.841 239.661 339.136 242.299 345.677C244.938 352.218 267.092 406.397 267.092 406.397" stroke="#54C3E5" stroke-width="1.24272" stroke-linecap="round" stroke-linejoin="round"/>
<path d="M338.606 246.479C344.029 246.479 350.309 252.473 351.166 257.61" stroke="#2C2F53" stroke-width="0.828481" stroke-linecap="round" stroke-linejoin="round"/>
<path d="M337.989 268.873C339.948 270.115 342.492 270.115 342.492 270.115" stroke="#2C2F53" stroke-width="0.828481" stroke-linecap="round" stroke-linejoin="round"/>
<path d="M368.017 199.628C365.118 210.461 360.996 230.833 360.996 230.833" stroke="#2C2F53" stroke-width="0.828481" stroke-linecap="round" stroke-linejoin="round"/>
<path d="M302.7 370.395C302.375 375.268 302.683 380.162 303.616 384.955" stroke="#2C2F53" stroke-width="0.828481" stroke-linecap="round" stroke-linejoin="round"/>
<path d="M121.793 250.994L116.453 235.659" stroke="#2C2F53" stroke-width="0.828481" stroke-linecap="round" stroke-linejoin="round"/>
<path d="M127.191 258.401C129.943 261.434 133.081 264.094 136.523 266.313C137.642 267.068 138.872 267.642 140.169 268.015C145.682 269.229 160.715 270.712 170.876 268.711C171.734 268.541 172.533 268.347 173.333 268.131" stroke="#2C2F53" stroke-width="0.828481" stroke-linecap="round" stroke-linejoin="round"/>
<path d="M98.2888 237.154C111.76 241.148 128.495 231.239 128.943 218.298C129.581 199.11 124.386 185.772 132.315 176.551" stroke="#505C7B" stroke-width="0.828481" stroke-linecap="round" stroke-linejoin="round"/>
<path d="M152.38 164.293C154.92 178.543 167.836 200.747 186.563 192.938" stroke="#505C7B" stroke-width="0.828481" stroke-linecap="round" stroke-linejoin="round"/>
<path d="M155.628 165.151C158.59 164.96 162.6 168.78 164.795 174.318C166.991 179.856 173.358 188.899 182.256 187.959" stroke="#505C7B" stroke-width="0.828481" stroke-linecap="round" stroke-linejoin="round"/>
<path d="M22.2426 395.464C26.385 393.899 30.6558 392.875 33.427 392.614" stroke="#2C2F53" stroke-width="0.828481" stroke-linecap="round" stroke-linejoin="round"/>
<path d="M174.774 469.092C172.587 463.226 171.017 459.978 171.017 459.978" stroke="#2C2F53" stroke-width="0.828481" stroke-linecap="round" stroke-linejoin="round"/>
<path d="M176.29 451.755C176.477 454.162 177.214 454.904 179.439 458.234C181.663 461.565 197.176 485.201 197.176 485.201" stroke="#2C2F53" stroke-width="0.828481" stroke-linecap="round" stroke-linejoin="round"/>
<path d="M181.477 444.237C184.07 447.551 188.954 454.817 188.954 454.817" stroke="#2C2F53" stroke-width="0.828481" stroke-linecap="round" stroke-linejoin="round"/>
<path d="M130.392 293.557C140.748 309.464 175.292 313.441 183.697 296.871" stroke="#54C3E5" stroke-width="1.24272" stroke-linecap="round" stroke-linejoin="round"/>
<path opacity="0.25" d="M87.9908 375.171L81.6944 385.697C70.5637 381.873 38.4145 370.966 15.6023 359.774C17.1723 357.139 18.8831 354.26 20.6974 351.203C36.9812 358.34 74.5031 372.097 87.9908 375.171Z" fill="#54C3E5"/>
<path d="M163.238 200.117C161.548 205.647 161.121 207.838 161.001 210.887C160.881 213.936 161.548 214.355 163.801 216.181C166.055 218.008 167.877 218.737 168.851 222.449C169.824 226.16 172.79 235.046 172.79 235.046" stroke="#2C2F53" stroke-width="0.828481" stroke-linecap="round" stroke-linejoin="round"/>
<path d="M166.891 235.46C161.763 234.043 160.483 236.819 161.962 237.531C163.225 238.103 166.038 235.634 166.891 235.46Z" fill="#2C2F53"/>
<path d="M163.797 235.659C166.282 235.7 171.866 236.624 172.782 235.058C173.697 233.492 173.739 229.777 173.739 229.777" stroke="#2C2F53" stroke-width="0.828481" stroke-linecap="round" stroke-linejoin="round"/>
<path d="M138.503 226.873C141.254 221.604 145.032 220.974 148.135 221.015" stroke="#2C2F53" stroke-width="1.65696" stroke-linecap="round" stroke-linejoin="round"/>
<path d="M167.993 213.112C169.994 210.539 172.09 210.37 174.758 210.871" stroke="#2C2F53" stroke-width="1.65696" stroke-linecap="round" stroke-linejoin="round"/>
<path d="M165.578 253.596C157.67 253.989 153.213 249.184 152.322 247.925L156.879 246.591L173.324 241.806C173.403 242.763 173.461 243.683 173.478 244.549C173.614 249.793 172.372 253.272 165.578 253.596Z" fill="#2C2F53"/>
<path d="M173.486 244.549C169.161 246.752 160.002 249.047 159.427 249.01C158.913 248.981 157.795 248.078 156.896 246.595L173.324 241.806C173.411 242.763 173.469 243.683 173.486 244.549Z" fill="white"/>
<path opacity="0.5" d="M168.151 396.803C176.387 396.803 183.063 390.126 183.063 381.89C183.063 373.654 176.387 366.977 168.151 366.977C159.915 366.977 153.238 373.654 153.238 381.89C153.238 390.126 159.915 396.803 168.151 396.803Z" fill="#505C7B"/>
<path d="M176.274 379.156C173.511 378.079 169.7 378 168.151 378.021C166.601 378.041 162.786 378.079 160.027 379.156C158.283 379.835 157.782 381.736 157.687 383.327C157.671 383.641 157.719 383.956 157.828 384.251C157.937 384.546 158.106 384.815 158.323 385.043C158.54 385.27 158.801 385.451 159.091 385.575C159.38 385.698 159.692 385.76 160.007 385.759H160.943C162.227 385.759 163.143 384.802 163.014 382.913C164.706 382.577 166.417 382.35 168.138 382.234C169.859 382.35 171.571 382.577 173.262 382.913C173.151 384.798 174.066 385.759 175.334 385.759H176.27C176.584 385.76 176.896 385.698 177.186 385.575C177.475 385.451 177.736 385.27 177.954 385.043C178.171 384.815 178.339 384.546 178.449 384.251C178.558 383.956 178.606 383.641 178.59 383.327C178.519 381.741 178.018 379.835 176.274 379.156Z" fill="white"/>
<path opacity="0.5" d="M227.242 396.803C235.478 396.803 242.155 390.126 242.155 381.89C242.155 373.654 235.478 366.977 227.242 366.977C219.006 366.977 212.329 373.654 212.329 381.89C212.329 390.126 219.006 396.803 227.242 396.803Z" fill="#505C7B"/>
<path d="M236.074 377.772L231.608 380.349V377.134H218.41V386.641H231.608V383.426L236.074 386.003V377.772Z" fill="white"/>
<path opacity="0.5" d="M109.059 396.803C117.295 396.803 123.972 390.126 123.972 381.89C123.972 373.654 117.295 366.977 109.059 366.977C100.823 366.977 94.1466 373.654 94.1466 381.89C94.1466 390.126 100.823 396.803 109.059 396.803Z" fill="#505C7B"/>
<path d="M114.275 375.03V381.542C114.275 382.925 113.725 384.252 112.747 385.23C111.769 386.208 110.442 386.757 109.059 386.757V386.757C107.676 386.757 106.35 386.208 105.372 385.23C104.393 384.252 103.844 382.925 103.844 381.542V375.03" stroke="white" stroke-width="0.828481" stroke-linecap="round" stroke-linejoin="round"/>
<path d="M111.076 389.454H109.689V384.645C110.544 384.497 111.319 384.053 111.878 383.39C112.438 382.727 112.745 381.888 112.746 381.02V375.635C112.746 374.658 112.358 373.722 111.667 373.031C110.977 372.34 110.04 371.952 109.063 371.952C108.087 371.952 107.15 372.34 106.459 373.031C105.769 373.722 105.381 374.658 105.381 375.635V381.02C105.382 381.888 105.689 382.727 106.248 383.39C106.807 384.053 107.583 384.497 108.438 384.645V389.454H107.046C106.41 389.454 105.8 389.707 105.35 390.156C104.9 390.606 104.647 391.216 104.647 391.852H113.475C113.475 391.216 113.222 390.606 112.772 390.156C112.323 389.707 111.713 389.454 111.076 389.454Z" fill="white"/>
<path d="M173.598 280.269C164.46 281.072 153.466 278.686 146.85 276.188C142.029 274.366 138.591 269.85 136.528 266.313C137.646 267.067 138.876 267.642 140.173 268.015C145.686 269.229 160.719 270.712 170.881 268.711L171.088 268.935C171.678 272.763 172.517 276.549 173.598 280.269Z" fill="#2C2F53"/>
<path opacity="0.5" d="M252.552 47.2456V138.818C252.552 139.999 252.32 141.168 251.868 142.259C251.416 143.35 250.753 144.342 249.918 145.177C249.083 146.012 248.092 146.674 247 147.126C245.909 147.578 244.74 147.811 243.559 147.811H215.453C213.978 139.729 213.423 133.275 213.319 131.962C213.237 131.921 213.158 131.879 213.079 131.834C204.343 136.365 194.38 136.771 186.021 135.839V47.2456C186.021 46.0646 186.254 44.8952 186.706 43.8041C187.157 42.713 187.82 41.7216 188.655 40.8865C189.49 40.0514 190.482 39.389 191.573 38.937C192.664 38.4851 193.833 38.2525 195.014 38.2525H243.559C244.74 38.2525 245.909 38.4851 247 38.937C248.092 39.389 249.083 40.0514 249.918 40.8865C250.753 41.7216 251.416 42.713 251.868 43.8041C252.32 44.8952 252.552 46.0646 252.552 47.2456Z" fill="#505C7B"/>
<path d="M251.388 167.777L219.33 163.672L217.557 163.444C212.524 145.984 211.758 134.095 211.758 134.095C199.745 140.379 183.71 137.575 173.648 135.255L173.909 133.457C176.738 114.216 180.156 91.2753 180.321 91.2753C180.611 91.2753 214.446 95.3555 214.446 95.3555L217.097 107.812L217.358 109.054C217.358 109.054 214.55 115.79 212.852 121.689C212.698 122.244 212.549 122.791 212.412 123.321C211.899 125.355 211.584 127.198 211.621 128.495C211.683 130.239 212.147 131.241 213.067 131.809C213.141 131.854 213.224 131.896 213.307 131.937C215.25 132.915 218.957 132.384 224.939 132.571C234.268 132.861 249.727 130.823 254.491 147.069C259.255 163.316 251.388 167.777 251.388 167.777Z" fill="#F4B29C"/>
<path d="M217.371 109.067C217.371 109.067 214.562 115.803 212.864 121.701C204.397 124.452 198.871 119.717 196.257 116.598C193.092 112.803 189.981 98.6074 189.981 98.6074L214.335 105.906C214.335 105.906 215.553 106.64 217.114 107.82L217.371 109.067Z" fill="#2C2F53"/>
<path d="M227.64 101.66C227.494 101.964 227.356 102.264 227.226 102.559C224.231 109.187 224.74 113.673 228.435 116.871C232.304 120.21 239.831 115.906 239.363 115.906C238.895 115.906 233.709 116.258 233.978 111.863C234.247 107.468 241.02 107.116 241.538 104.125C242.056 101.134 241.012 99.0257 238.812 96.213C236.613 93.4004 235.879 90.9398 239.367 88.475C242.855 86.0103 248.041 86.0144 249.185 78.1894C250.328 70.3644 247.772 58.1651 243.994 48.8447C240.216 39.5242 232.035 30.8252 231.422 30.8252C230.809 30.8252 174.63 32.9337 174.63 32.9337L175.595 97.3729L227.64 101.66Z" fill="#2C2F53"/>
<path d="M182.583 89.896C185.321 97.0789 196.493 112.584 203.104 114.407C209.716 116.229 219.976 112.468 225.337 107.907C230.697 103.346 231.38 100.38 233.319 91.147C235.258 81.9136 239.363 65.4931 239.363 65.4931C239.363 65.4931 233.431 43.2525 222.619 42.4696C222.619 42.4696 219.521 51.9184 212.586 54.2133C196.738 59.4576 196.965 58.6581 192.864 67.8833C188.763 77.1084 182.583 89.896 182.583 89.896Z" fill="#F4B29C"/>
<path d="M182.583 89.896C185.321 97.0789 196.493 112.584 203.104 114.407C209.716 116.229 219.976 112.468 225.337 107.907" stroke="#2C2F53" stroke-width="0.828481" stroke-linecap="round" stroke-linejoin="round"/>
<path d="M199.522 58.8529C204.683 56.8107 210.814 56.4047 215.963 58.4013" stroke="#2C2F53" stroke-width="0.828481" stroke-linecap="round" stroke-linejoin="round"/>
<path d="M227.023 62.2412C231.629 61.7027 235.125 63.2313 238.526 68.8691" stroke="#2C2F53" stroke-width="0.828481" stroke-linecap="round" stroke-linejoin="round"/>
<path d="M227.437 77.0627C229.291 77.2588 231.162 76.912 232.822 76.0644" stroke="#2C2F53" stroke-width="0.828481" stroke-linecap="round" stroke-linejoin="round"/>
<path d="M201.945 70.1783C203.482 72.0962 206.323 72.788 206.783 72.788" stroke="#2C2F53" stroke-width="0.828481" stroke-linecap="round" stroke-linejoin="round"/>
<path d="M206.899 85.9731C210.126 88.355 213.887 91.5156 216.807 91.2795C218.486 91.1556 220.145 90.8415 221.753 90.3433" stroke="#2C2F53" stroke-width="0.828481" stroke-linecap="round" stroke-linejoin="round"/>
<path d="M221.033 68.4631C218.92 70.3065 217.499 76.0644 216.808 91.2795" stroke="#2C2F53" stroke-width="0.828481" stroke-linecap="round" stroke-linejoin="round"/>
<path d="M206.51 74.9212C207.695 74.9212 208.655 73.9605 208.655 72.7754C208.655 71.5903 207.695 70.6296 206.51 70.6296C205.324 70.6296 204.364 71.5903 204.364 72.7754C204.364 73.9605 205.324 74.9212 206.51 74.9212Z" fill="#2C2F53"/>
<path d="M227.437 79.2583C228.622 79.2583 229.583 78.2976 229.583 77.1125C229.583 75.9274 228.622 74.9667 227.437 74.9667C226.252 74.9667 225.291 75.9274 225.291 77.1125C225.291 78.2976 226.252 79.2583 227.437 79.2583Z" fill="#2C2F53"/>
<path d="M218.916 98.914C218.916 98.914 218.013 102.385 215.474 103.317C212.935 104.249 209.405 104.349 208.196 103.823C205.921 102.833 201.004 97.5594 202.699 93.4999C203.187 93.7567 203.767 94.0301 204.405 94.3035C208.494 96.0723 215.176 98.069 217.806 98.7069C218.168 98.8131 218.54 98.8825 218.916 98.914Z" fill="#2C2F53"/>
<path d="M218.916 98.9139C218.224 96.6895 215.437 96.1592 213.842 96.2918C212.253 94.9275 210.251 94.138 208.158 94.0508C206.328 94.0011 204.503 93.8198 202.699 93.5081C202.699 93.5081 201.696 97.957 207.338 100.343C212.98 102.729 217.35 103.595 218.916 98.9139Z" fill="#2C2F53"/>
<path opacity="0.25" d="M192.935 199.168L149.589 173.597L167.853 131.486C169.838 132.255 171.862 132.919 173.917 133.474C182.708 135.914 199.422 138.942 213.092 131.829C213.167 131.875 213.249 131.916 213.332 131.958C213.502 134.075 214.836 149.567 219.343 163.672C221.356 169.969 223.995 175.988 227.45 180.42C239.189 195.519 192.935 199.168 192.935 199.168Z" fill="#F06082"/>
<path d="M217.81 99.3738C217.537 99.3738 206.236 97.3689 201.274 92.7791" stroke="#2C2F53" stroke-width="0.828481" stroke-linecap="round" stroke-linejoin="round"/>
<path opacity="0.75" d="M213.092 131.83C212.74 132.008 205.395 147.057 190.864 154.426" stroke="#F06082" stroke-width="0.828481" stroke-linecap="round" stroke-linejoin="round"/>
<path d="M217.81 98.711C217.433 99.6306 216.928 100.587 216.451 100.757C215.503 101.097 204.968 97.1493 204.563 96.5072C204.331 96.1385 204.343 95.1444 204.409 94.3076C208.498 96.0723 215.163 98.073 217.81 98.711Z" fill="white"/>
<path opacity="0.3" d="M191.841 89.577C196.465 89.577 200.213 85.8288 200.213 81.2052C200.213 76.5816 196.465 72.8334 191.841 72.8334C187.218 72.8334 183.47 76.5816 183.47 81.2052C183.47 85.8288 187.218 89.577 191.841 89.577Z" fill="#DC6437"/>
<path opacity="0.5" d="M103.981 134.592C109.2 117.807 102.373 96.3456 92.1375 99.6263C83.4924 102.402 92.3985 121.275 92.3985 121.275C92.3985 121.275 76.1562 106.726 69.8556 120.599C65.593 129.974 85.3233 140.943 103.981 134.592Z" fill="#F06082"/>
<path opacity="0.5" d="M110.969 74.9585C117.108 69.9876 119.929 60.3026 115.293 58.9688C111.379 57.842 109.979 67.1003 109.979 67.1003C109.979 67.1003 107.564 57.6183 101.748 61.214C97.8209 63.6455 102.431 72.6636 110.969 74.9585Z" fill="#F06082"/>
<path opacity="0.5" d="M136.076 108.185C129.307 99.0298 128.906 84.4486 135.865 84.2746C141.743 84.1296 140.318 97.5717 140.318 97.5717C140.318 97.5717 147.149 85.2108 153.963 92.3523C158.569 97.1823 148.839 108.093 136.076 108.185Z" fill="#F06082"/>
<path d="M152.318 247.929L173.333 241.806" stroke="#2C2F53" stroke-width="0.828481" stroke-linecap="round" stroke-linejoin="round"/>
</svg>
