<svg width="648" height="449" viewBox="0 0 648 449" fill="none" xmlns="http://www.w3.org/2000/svg">
<path opacity="0.75" d="M273.218 124.086C272.357 126.211 277.448 126.646 281.917 125.884C286.387 125.122 293.516 115.201 294.709 111.584C295.902 107.968 296.366 104.542 294.709 104.542C291.267 104.538 277.294 114.024 273.218 124.086Z" fill="#F06082"/>
<path opacity="0.75" d="M273.218 124.086C274.407 124.977 280.173 115.047 286.702 110.569C286.702 110.569 278.831 103.85 272.497 101.804C272.493 101.804 268.181 120.329 273.218 124.086Z" fill="#F06082"/>
<path opacity="0.75" d="M272.497 100.674C271.694 101.32 271.669 102.807 274.49 104.178C277.311 105.549 285.297 111.634 285.297 111.634C285.297 111.634 290.529 107.562 294.34 105.744C294.34 105.744 290.972 98.7018 289.866 97.8112C288.76 96.9206 278.968 95.4915 272.497 100.674Z" fill="#F06082"/>
<path d="M250.762 34.7682C250.762 34.7682 250.406 29.934 245.572 23.128C240.737 16.3221 219.959 -0.694924 202.312 0.0217121C184.666 0.738348 171.079 9.33797 161.39 21.4255C151.701 33.513 149.609 45.0372 149.928 53.4877C150.466 67.6382 157.09 71.7557 152.09 92.0991L250.762 34.7682ZM252.655 72.5842C252.361 70.5503 256.582 66.3292 256.582 64.1503C256.582 61.9714 251.636 39.1301 250.783 34.7682L152.111 92.0991C148.664 96.0965 144.174 100.985 144.174 100.985L184.6 154.77C185.014 154.206 193.265 143.585 200.602 134.136L211.944 119.567C211.944 119.567 216.5 122.16 221.235 124.381C223.179 125.317 225.176 126.139 227.217 126.841C233.016 128.734 236.819 129.327 237.838 129.024C238.857 128.722 242.055 124.228 243.637 117.388C245.219 110.549 247.854 100.226 249.163 98.3334C250.472 96.4403 252.945 97.1694 253.96 97.4635C254.975 97.7576 258.326 94.5638 258.761 93.0974C259.196 91.631 252.945 74.6223 252.655 72.5842Z" fill="#E7A184"/>
<path d="M419.623 322.238C425.837 322.139 430.969 322.04 432.775 323.241C434.581 324.442 446.731 337.598 449.643 341.211C449.643 341.211 461.992 335.386 472.132 327.657C482.273 319.927 491.407 311.592 496.527 306.071C502.185 300.029 508.294 294.425 514.799 289.306C521.224 284.286 524.036 281.075 525.54 274.249C527.044 267.422 528.651 259.991 531.364 246.64C534.078 233.289 542.594 189.81 542.594 189.81C542.594 189.81 565.601 185.017 585.779 187.527C585.779 187.527 579.565 211.698 576.844 223.247C574.122 234.796 568.31 257.281 565.8 266.328C563.29 275.375 560.879 281.477 560.879 284.186C560.879 286.895 559.541 298.312 557.768 300.048C555.539 302.231 554.868 301.953 551.343 307.475C547.818 312.997 534.31 324.641 515.872 337.093C497.434 349.545 490.905 352.453 487.289 353.663C483.673 354.872 480.765 356.272 473.234 361.194C465.703 366.115 451.549 377.958 442.212 364.093C442.212 364.093 434.581 369.114 424.138 360.779C413.695 352.445 391.91 343.795 391.827 342.81C391.745 341.824 397.95 326.654 419.623 322.238Z" fill="#FCC9A1"/>
<path d="M526.36 281.904C533.241 280.86 538.208 281.904 538.208 281.904" stroke="#2C2F53" stroke-width="1.24272" stroke-linecap="round" stroke-linejoin="round"/>
<path d="M421.168 328.978C424.797 328.303 429.95 328.386 430.791 328.473" stroke="#2C2F53" stroke-width="1.24272" stroke-linecap="round" stroke-linejoin="round"/>
<path d="M408.675 344.172C415.302 338.895 422.1 336.749 424.296 335.73C426.491 334.711 429.445 334.798 429.445 334.798" stroke="#2C2F53" stroke-width="1.24272" stroke-linecap="round" stroke-linejoin="round"/>
<path d="M435.691 352.138C437.932 356.488 440.024 361.384 442.224 364.106" stroke="#2C2F53" stroke-width="1.24272" stroke-linecap="round" stroke-linejoin="round"/>
<path d="M449.656 341.215C451.877 343.667 454.252 345.975 456.768 348.124" stroke="#2C2F53" stroke-width="1.24272" stroke-linecap="round" stroke-linejoin="round"/>
<path d="M245.087 341.306C266.561 347.105 278.28 348.216 303.673 349.711C329.066 351.206 350.727 349.152 355.209 348.216C359.691 347.279 382.47 328.423 386.016 325.809C389.562 323.196 389.292 323.026 399.798 322.019C410.303 321.013 425.733 319.119 426.516 319.447C427.299 319.774 427.635 328.166 425.062 329.509C422.49 330.851 419.217 331.932 414.329 332.64C402.701 334.297 400.692 335.54 397.225 339.235C397.225 339.235 403.708 341.696 414.888 343.038C426.069 344.38 435.571 344.695 436.466 345.834C437.361 346.973 439.822 355.448 437.585 356.119C435.348 356.79 427.97 357.362 427.97 357.362C427.97 357.362 428.417 362.055 427.858 362.747C427.299 363.439 417.685 370.796 417.685 370.796C417.685 370.796 418.244 378.397 417.349 379.739C416.454 381.082 412.208 382.639 409.971 384.88C407.734 387.121 408.406 387.229 404.383 388.012C400.361 388.795 390.523 388.683 385.602 388.907C380.68 389.13 365.813 389.801 361.903 388.347C357.993 386.893 356.104 385.104 354.413 385.216C352.723 385.327 310.591 391.363 292.48 393.152C274.37 394.942 232.896 399.267 232.896 399.267C232.896 399.267 243.96 364.723 245.087 341.306Z" fill="#E7A184"/>
<path opacity="0.5" d="M152.094 92.099C152.094 92.099 160.495 91.5481 165.959 93.0684C171.423 94.5886 170.076 91.1877 174.107 85.1978C178.138 79.2079 181.004 75.256 190.855 73.8228C190.855 73.8228 190.229 68.2719 192.735 65.045C195.242 61.8181 201.849 61.8305 204.827 68.5371C205.183 69.3448 203.468 73.2842 204.11 80.985C204.202 82.0579 210.738 83.2219 211.364 82.5094C211.989 81.7969 211.273 72.3895 214.587 67.5553C217.394 63.3893 220.946 59.7762 225.063 56.8969C228.468 54.5689 231.86 51.8142 233.832 36.5991C234.213 33.6663 242.974 32.726 250.762 34.7806C250.762 34.7806 250.406 29.9506 245.572 23.1405C240.738 16.3303 219.959 -0.694934 202.317 0.0217017C184.674 0.738338 171.062 9.33382 161.39 21.4255C151.717 33.5172 149.605 45.0372 149.928 53.4877C150.462 67.634 157.09 71.7557 152.094 92.099Z" fill="#2C2F53"/>
<path opacity="0.5" d="M231.301 64.5144C235.423 59.6264 237.345 58.0854 238.343 57.7001C239.341 57.3149 250.265 55.6289 251.309 55.7242C252.353 55.8195 253.67 62.0952 251.914 62.0414C250.157 61.9875 242.904 61.1632 241.255 61.2709C239.607 61.3786 234.598 62.8657 231.301 64.5144Z" fill="#2C2F53"/>
<path d="M380.796 187.552C380.009 187.995 377.259 188.637 374.91 190.004C373.456 184.727 372.362 180.804 372.362 180.804C372.362 180.804 369.135 179.624 365.275 178.049C361.414 176.475 356.609 171.981 355.747 170.092C354.885 168.203 356.99 164.081 356.99 164.081C351.004 160.515 357.317 154.396 357.317 154.396C354.181 150.2 354.467 146.464 355.246 145.672C356.025 144.881 357.93 145.006 357.93 145.006C357.191 144.024 356.282 143.182 355.246 142.52C353.738 141.654 352.176 136.534 353.519 135.536C354.861 134.538 358.489 131.017 359.426 131.017C362.619 131.017 364.152 136.853 363.68 137.715C363.208 138.576 360.78 140.735 360.78 140.735C362.169 142.303 363.67 143.769 365.271 145.121C365.271 145.121 371.646 144.807 373.025 145.121C374.404 145.436 380.158 148.021 380.158 148.021C383.265 146.654 386.227 144.011 388.824 138.179C391.421 132.346 388.824 121.812 388.824 121.812C389.611 119.608 396.384 118.817 396.778 120.077C397.171 121.336 395.121 127.719 394.81 133.411C394.499 139.103 395.278 152.768 395.204 159.4C395.129 166.032 392.051 169.152 391.823 170.022C391.595 170.891 392.287 173.725 395.204 183.178C395.585 184.42 396.003 185.986 396.413 187.196C391.736 186.98 385.962 186.272 385.162 185.775C383.787 184.926 382.466 179.305 381.683 173.008C380.9 166.712 381.405 167.387 380.44 167.718C379.475 168.05 379.752 167.925 380.08 171.206C380.407 174.487 381.84 186.964 380.796 187.552Z" fill="#FCC9A1"/>
<path opacity="0.5" d="M357.33 135.109C357.33 135.109 355.325 136.211 355.258 137.048C355.192 137.885 355.188 139.637 355.188 139.637C351.957 146.385 340.594 159.657 330.512 155.97C328.449 155.138 326.523 154.003 324.795 152.603C325.312 152.024 325.763 151.391 326.141 150.714C326.833 149.235 324.389 143.324 324.112 143.415C323.954 143.464 321.796 145.681 319.924 147.615C319.178 146.611 318.602 145.491 318.217 144.301C316.196 137.487 317.674 133.531 317.749 133.403L320.947 133.539C320.069 133.817 319.584 134.127 319.584 134.455C319.584 135.697 326.817 136.729 335.739 136.729C343.693 136.729 350.304 135.9 351.646 134.852L357.33 135.109Z" fill="#F06082"/>
<path d="M433.964 238.707C433.964 238.707 412.378 261.548 411.595 261.867C410.812 262.186 406.79 262.024 404.822 261.867C402.855 261.709 400.17 259.738 393.323 251.548C386.475 243.359 387.109 241.544 386.156 236.424C385.204 231.304 383.634 223.268 381.505 214.602C380.49 210.484 378.261 201.346 376.314 194.263C379.065 194.491 383.17 195.116 388.099 193.869C393.766 192.432 395.97 190.613 397.213 189.478C399.636 196.251 402.598 203.028 404.114 206.305C406.16 210.683 408.525 212.717 408.525 212.717C411.674 208.699 422.233 193.099 422.233 193.099C422.233 193.099 435.7 190.812 441.702 204.697C447.704 218.583 433.964 238.707 433.964 238.707Z" fill="#FCC9A1"/>
<path opacity="0.5" d="M377.843 166.914C377.843 166.914 379.181 174.014 379.247 179.905C379.313 185.795 379.616 186.152 377.843 186.802C376.07 187.452 367.458 191.959 367.59 194.076C367.723 196.193 374.346 197.85 383.82 196.727C393.294 195.605 401.115 190.841 400.576 188.442C399.847 185.195 393.12 185.348 388.588 184.801C386.401 184.536 385.606 183.674 384.085 175.791C383.091 170.659 382.039 164.971 382.039 164.971C382.039 164.971 378.427 164.528 377.843 166.914Z" stroke="#505C7B" stroke-width="1.24272" stroke-linecap="round" stroke-linejoin="round"/>
<path opacity="0.5" d="M380.009 149.537L379.906 149.575C377.528 148.626 373.982 147.234 373.344 147.114C370.675 146.687 367.974 146.489 365.271 146.522C361.066 143.701 359.082 140.896 359.082 140.896C359.082 140.896 361.849 138.825 362.524 137.371C362.852 136.671 361.982 135.142 361.335 134.401C363.697 135.068 369.206 135.229 375.56 134.716C383.99 134.032 390.742 132.425 390.635 131.124C390.636 131.118 390.636 131.11 390.635 131.104L391.877 131.025C391.877 131.025 392.424 145.076 380.009 149.537Z" fill="#F06082"/>
<path d="M520.727 126.398C527.4 131.708 535.163 132.798 546.6 133.751C558.037 134.703 582.415 133.614 585.124 154.463C585.124 154.463 572.784 153.365 538.282 166.72C503.544 180.154 484.916 195.046 484.916 195.046C484.916 195.046 468.172 169.955 456.234 164.392C456.234 164.392 418.873 82.7244 424.726 60.3885C430.58 38.0527 441.474 22.2784 474.294 37.9201C507.115 53.5618 524.136 100.288 524.136 100.288L520.727 126.398Z" fill="#FCC9A1"/>
<path d="M490.152 115.156C489.046 118.018 486.009 125.619 474.175 133.879C470.914 127.529 471.412 123.035 471.412 123.035C478.806 119.339 482.737 115.417 488.267 107.683C490.239 104.92 492.049 100.479 492.608 96.432C492.608 96.432 491.991 110.396 490.152 115.156Z" fill="#2C2F53"/>
<path d="M499.522 89.166C503.536 100.143 519.032 125.159 520.727 126.398C522.421 127.637 533.257 119.82 533.39 106.97C533.522 94.1203 526.431 74.4398 520.002 60.5172C513.573 46.5945 503.266 29.7267 492.827 24.6398C482.389 19.5529 467.145 21.9638 467.145 21.9638C467.145 21.9638 465.537 18.6167 455.098 19.8222C444.66 21.0276 433.144 23.7036 425.381 36.5575C417.618 49.4114 416.682 60.3846 419.623 70.4258C422.564 80.467 424.71 102.285 419.209 117.682C413.708 133.08 408.633 145.528 418.939 155.299C429.246 165.071 430.319 170.158 425.364 175.647C420.41 181.136 416.529 185.15 419.205 192.78C421.881 200.41 432.046 205.095 433.529 206.301C433.529 206.301 439.954 221.694 434.465 229.324C428.976 236.955 423.355 245.658 430.323 257.435C430.323 257.435 465.264 261.991 485.342 270.69C485.342 270.69 486.415 262.124 476.776 256.233C467.136 250.343 461.648 246.06 460.04 243.114C461.816 241.046 463.839 239.202 466.063 237.626C470.077 234.68 471.821 227.452 467.803 220.493C463.785 213.533 459.639 208.31 459.104 198.273C458.57 188.236 462.182 172.971 467.94 162.797C473.698 152.624 483.727 145.925 480.516 138.709C477.306 131.493 471.403 123.047 471.403 123.047C471.403 123.047 460.703 127.516 456.673 127.061C452.799 126.646 449.85 124.919 445.032 116.083C440.215 107.248 435.53 91.0508 433.653 77.7993C431.777 64.5477 431.723 49.4197 443.425 40.3147C445.836 38.4423 456.267 40.3147 463.238 48.5995C470.21 56.8843 473.279 66.4118 478.901 68.2759C481.119 69.0618 483.493 69.302 485.824 68.9761C488.154 68.6502 490.372 67.7678 492.289 66.4035C495.234 64.2619 502.127 66.4035 502.865 74.97C503.714 84.8579 499.522 89.166 499.522 89.166Z" fill="#2C2F53"/>
<path d="M519.231 124.521C525.2 118.308 526.215 114.526 524.795 106.411C523.374 98.2957 519.409 92.1277 513.751 88.9546C508.092 85.7815 505.731 83.0517 505.114 80.2141C504.538 77.5837 504.418 75.935 503.022 73.9467" stroke="#505C7B" stroke-width="1.24272" stroke-linecap="round" stroke-linejoin="round"/>
<path d="M443.434 40.3061C445.716 34.863 462.837 23.1027 467.128 21.9677" stroke="#505C7B" stroke-width="1.24272" stroke-linecap="round" stroke-linejoin="round"/>
<path d="M455.587 28.7529C462.708 28.8316 472.182 38.9929 474.328 46.7558C476.813 55.7241 478.507 67.6045 490.62 67.2566" stroke="#505C7B" stroke-width="1.24272" stroke-linecap="round" stroke-linejoin="round"/>
<path d="M462.659 24.1178C471.018 25.3937 483.429 36.6734 487.186 44.4446C490.943 52.2157 500.11 56.2256 504.617 58.7359C509.124 61.2462 522.168 67.8036 528.618 82.447" stroke="#505C7B" stroke-width="1.24272" stroke-linecap="round" stroke-linejoin="round"/>
<path d="M453.732 30.1158C453.773 26.048 449.672 22.3653 438.608 24.1176" stroke="#505C7B" stroke-width="1.24272" stroke-linecap="round" stroke-linejoin="round"/>
<path d="M424.101 38.7323C430.654 29.7764 442.539 28.7491 446.847 35.9279" stroke="#505C7B" stroke-width="1.24272" stroke-linecap="round" stroke-linejoin="round"/>
<path d="M438.749 44.2413C434.362 40.6457 428.314 47.6588 427.738 53.2841C427.146 59.0628 427.146 65.8729 429.515 75.3466C431.885 84.8203 433.513 99.4761 429.221 111.17C424.929 122.864 411.019 136.874 418.935 155.299" stroke="#505C7B" stroke-width="1.24272" stroke-linecap="round" stroke-linejoin="round"/>
<path d="M422.962 159.396C430.948 165.336 434.681 171.778 432.075 176.728C429.47 181.678 415.481 190.903 429.151 203.563" stroke="#505C7B" stroke-width="1.24272" stroke-linecap="round" stroke-linejoin="round"/>
<path d="M462.94 126.617C470.363 141.074 471.871 146.501 469.481 152.773C467.091 159.044 464.129 165.03 465.152 168.472" stroke="#505C7B" stroke-width="1.24272" stroke-linecap="round" stroke-linejoin="round"/>
<path d="M458.487 245.38C468.768 215.079 446.039 199.917 442.249 189.503C438.458 179.089 441.168 171.235 446.035 160.146C446.347 159.436 446.663 158.756 446.984 158.104C451.689 148.576 457.302 145.387 459.937 149.189C462.75 153.249 457.53 162.031 447.013 158.12H446.979C436.499 154.185 437.514 143.779 439.809 132.206C441.797 122.181 442.27 117.314 441.23 108.407" stroke="#505C7B" stroke-width="1.24272" stroke-linecap="round" stroke-linejoin="round"/>
<path d="M461.25 262.223C456.801 257.464 453.951 250.869 460.032 243.114" stroke="#505C7B" stroke-width="1.24272" stroke-linecap="round" stroke-linejoin="round"/>
<path d="M435.281 256.354C431.632 250.409 431.735 242.584 436.01 238.102C440.285 233.62 442.791 228.923 442.688 222.141C442.674 217.854 441.82 213.611 440.173 209.652" stroke="#505C7B" stroke-width="1.24272" stroke-linecap="round" stroke-linejoin="round"/>
<path opacity="0.25" d="M480.616 208.335C501.705 200.344 541.762 189.197 585.795 190.576C595.609 190.883 592.473 189.077 592.274 182.142C592.071 175.1 590.853 158.974 589.433 155.523C588.012 152.073 585.679 150.859 577.767 151.77C569.856 152.682 528.887 160.188 486.278 190.618C486.278 190.618 480.396 183.012 476.946 178.953C473.495 174.893 468.425 167.897 463.557 165.564C459.892 173.552 457.568 182.09 456.677 190.833C456.677 190.833 471.701 198.265 480.616 208.335Z" fill="#F06082"/>
<path d="M1 420.252C18.8123 344.533 35.4524 267.675 44.9095 231.706C54.3666 195.738 62.3531 165.904 88.0692 142.354C120.894 112.297 131.979 109.414 131.979 109.414" stroke="#54C3E5" stroke-width="1.24272" stroke-linecap="round" stroke-linejoin="round"/>
<path d="M84.9169 194.632C100.115 170.747 132.14 160.614 148.793 170.386" stroke="#54C3E5" stroke-width="1.24272" stroke-linecap="round" stroke-linejoin="round"/>
<path d="M115.84 157.893C121.813 147.951 130.135 129.662 130.135 129.662" stroke="#54C3E5" stroke-width="1.24272" stroke-linecap="round" stroke-linejoin="round"/>
<path opacity="0.25" d="M130.135 106.349L177.379 174.657C177.379 174.657 189.707 167.337 195.229 165.283C195.229 165.283 173.274 134.596 161.46 117.645C149.646 100.694 141.668 92.0989 141.668 92.0989L130.135 106.349Z" fill="#54C3E5"/>
<path d="M195.225 165.287C197.404 167.909 197.404 168.186 197.263 170.742C197.122 173.298 195.705 185.174 193.866 191.823C192.027 198.471 191.319 201.446 191.178 205.406C191.037 209.366 187.648 241.059 187.234 245.873C186.82 250.686 185.818 257.335 185.818 257.335" stroke="#54C3E5" stroke-width="1.24272" stroke-linecap="round" stroke-linejoin="round"/>
<path d="M173.908 194.632C173.908 201.533 174.434 205.729 178.104 223.036C181.774 240.343 185.793 258.01 187.731 265.753C189.67 273.495 192.947 288.25 193.692 291.978C194.438 295.706 197.719 309.119 199.951 311.953C202.184 314.786 204.094 318.676 200.78 323.904C200.076 325.022 200.672 326.526 203.787 326.244C207.664 325.892 206.405 331.48 205.133 332.967" stroke="#54C3E5" stroke-width="1.24272" stroke-linecap="round" stroke-linejoin="round"/>
<path d="M205.995 334.881C207.341 332.122 208.187 331.625 208.187 331.625" stroke="#54C3E5" stroke-width="1.24272" stroke-linecap="round" stroke-linejoin="round"/>
<path d="M186.356 405.132C186.012 403.413 188.075 397.676 191.853 386.835C195.631 375.995 198.638 367.076 201.559 356.683C204.479 346.289 207.569 336.865 209.015 334.885" stroke="#54C3E5" stroke-width="1.24272" stroke-linecap="round" stroke-linejoin="round"/>
<path opacity="0.25" d="M209.781 332.901C216.359 332.404 230.907 334.67 235.779 334.885C240.65 335.101 247.523 337.715 248.799 338.705C248.96 341.795 246.988 359.226 245.286 367.958C243.583 376.69 238.737 391.814 237.991 395.008C237.245 398.202 236.127 403.583 235.597 404.432C235.066 405.281 230.804 406.189 226.483 406.242C222.163 406.296 196.77 406.88 193.949 406.615C191.128 406.35 190.875 407.179 189.156 405.372C186.609 402.725 186.853 401.532 187.599 399.25C188.344 396.968 201.799 355.341 203.663 349.458C205.527 343.576 209.781 332.901 209.781 332.901Z" fill="#54C3E5"/>
<path d="M203.356 333.907C201.194 339.707 194.284 349.607 193.108 351.065" stroke="#54C3E5" stroke-width="1.24272" stroke-linecap="round" stroke-linejoin="round"/>
<path d="M181.124 339.313C183.709 336.774 195.208 329.633 197.694 329.16" stroke="#54C3E5" stroke-width="1.24272" stroke-linecap="round" stroke-linejoin="round"/>
<path d="M141.282 405.741C145.711 392.204 150.557 379.085 151.141 377.415C151.725 375.746 151.477 370.564 151.477 370.564" stroke="#54C3E5" stroke-width="1.24272" stroke-linecap="round" stroke-linejoin="round"/>
<path d="M96.818 247.609C103.657 270.976 124.158 314.67 129.874 325.486C135.591 336.302 154 377.158 158.37 383.43C162.74 389.702 173.95 396.918 176.228 398.057C178.506 399.196 187.243 400.41 187.243 400.41" stroke="#54C3E5" stroke-width="1.24272" stroke-linecap="round" stroke-linejoin="round"/>
<path d="M397.229 339.234C394.416 337.499 394.205 336.438 393.915 335.734" stroke="#2C2F53" stroke-width="1.24272" stroke-linecap="round" stroke-linejoin="round"/>
<path d="M427.97 357.346C427.411 356.969 418.964 358.729 418.964 358.729" stroke="#2C2F53" stroke-width="1.24272" stroke-linecap="round" stroke-linejoin="round"/>
<path d="M417.684 370.758C414.855 372.83 413.037 374.217 413.037 374.217" stroke="#2C2F53" stroke-width="1.24272" stroke-linecap="round" stroke-linejoin="round"/>
<path d="M211.923 119.567C206.227 115.872 202.507 108.362 201.306 102.397C201.06 101.216 200.922 100.015 200.892 98.8097" stroke="#2C2F53" stroke-width="1.24272" stroke-linecap="round" stroke-linejoin="round"/>
<path d="M204.106 80.9806C203.758 85.8645 202.797 95.45 202.797 95.45" stroke="#2C2F53" stroke-width="1.24272" stroke-linecap="round" stroke-linejoin="round"/>
<path d="M198.526 88.2131C194.956 85.7276 191.364 79.3939 190.851 73.8141" stroke="#2C2F53" stroke-width="1.24272" stroke-linecap="round" stroke-linejoin="round"/>
<path d="M244.105 74.4686C245.386 74.4686 246.425 73.43 246.425 72.1489C246.425 70.8677 245.386 69.8291 244.105 69.8291C242.824 69.8291 241.786 70.8677 241.786 72.1489C241.786 73.43 242.824 74.4686 244.105 74.4686Z" fill="#2C2F53"/>
<path d="M240.07 68.9347C240.203 70.4508 242.452 72.0415 244.354 71.6563" stroke="#2C2F53" stroke-width="1.24272" stroke-linecap="round" stroke-linejoin="round"/>
<path d="M251.239 96.2037C249.675 94.8493 247.941 93.7046 246.081 92.7986" stroke="#2C2F53" stroke-width="1.24272" stroke-linecap="round" stroke-linejoin="round"/>
<path d="M249.113 94.5635C246.185 95.4955 243.886 94.0788 244.664 92.5834C245.443 91.088 248.243 92.9811 249.113 94.5635Z" fill="#2C2F53"/>
<path d="M234.337 99.7039C235.493 99.2524 237.291 99.3808 237.291 99.3808" stroke="#2C2F53" stroke-width="1.24272" stroke-linecap="round" stroke-linejoin="round"/>
<path d="M235.816 100.347C237.167 103.3 240.373 104.841 242.212 105.164C244.051 105.487 245.36 106.092 246.21 107.103" stroke="#2C2F53" stroke-width="1.24272" stroke-linecap="round" stroke-linejoin="round"/>
<path d="M236.375 107.835C237.486 109.078 240.021 109.41 240.452 109.41" stroke="#2C2F53" stroke-width="1.24272" stroke-linecap="round" stroke-linejoin="round"/>
<path d="M193.572 291.402C196.368 292.169 199.632 291.841 214.201 284.559" stroke="#54C3E5" stroke-width="1.24272" stroke-linecap="round" stroke-linejoin="round"/>
<path d="M193.232 194.143C197.499 207.084 201.153 220.211 202.064 220.783C202.975 221.354 204.574 220.667 205.262 221.694C205.95 222.721 204.462 226.487 205.262 227.402C206.061 228.318 208.46 229.113 208.46 229.113" stroke="#54C3E5" stroke-width="1.24272" stroke-linecap="round" stroke-linejoin="round"/>
<path d="M195.581 237.68C199.148 234.573 202.346 229.863 202.346 229.863" stroke="#54C3E5" stroke-width="1.24272" stroke-linecap="round" stroke-linejoin="round"/>
<path d="M199.512 249.158C202.76 243.123 206.028 236.267 206.405 235.58C206.782 234.892 208.108 234.801 208.7 239.101C209.293 243.4 210.941 248.885 211.716 251.263C212.49 253.64 215.237 265.848 215.647 270.786C216.057 275.724 218.161 282.948 218.161 282.948" stroke="#54C3E5" stroke-width="1.24272" stroke-linecap="round" stroke-linejoin="round"/>
<path d="M221.322 224.49C221.322 224.49 238.72 216.313 246.479 211.309C263.558 200.274 282.236 184.723 283.429 183.638C284.622 182.552 288.847 174.86 290.057 171.72C291.267 168.58 294.39 164.678 297.099 160.233C299.808 155.788 304.249 148.22 305.227 146.472C306.204 144.724 312.053 141.915 319.853 137.359C319.853 137.359 319.439 142.33 321.154 144.293C321.154 144.293 323.764 141.808 324.518 141.584C325.272 141.36 328.523 148.083 327.546 151.228C327.546 151.228 331.013 156.969 339.791 153.071C339.791 153.071 340.656 161.629 340.333 162.93C340.01 164.231 336.974 165.854 336.974 165.854C336.974 165.854 337.189 171.38 336.866 172.573C336.543 173.766 328.834 177.855 327.115 178.642C324.518 179.831 323.689 178.642 323.689 178.642C323.689 178.642 321.97 184.4 319.476 188.998C316.983 193.596 314.414 193.758 309.804 193.969C305.193 194.18 304.005 194.118 302.625 195.858C301.246 197.598 289.854 213.463 280.107 224.801C270.36 236.139 262.502 246.714 257.286 253.441C252.071 260.169 243.554 269.037 237.585 272.641C237.585 272.641 234.271 258.35 231.322 250.19C228.372 242.029 223.919 233.309 223.451 230.339C223.052 228.29 222.333 226.316 221.322 224.49Z" fill="#E7A184"/>
<path d="M299.936 160.349C305.255 158.104 314.456 151.178 321.137 144.301" stroke="#2C2F53" stroke-width="1.24272" stroke-linecap="round" stroke-linejoin="round"/>
<path d="M306.436 182.917C311.991 178.311 314.232 168.974 314.945 163.895C314.945 163.895 323.229 158.195 327.533 151.24" stroke="#2C2F53" stroke-width="1.24272" stroke-linecap="round" stroke-linejoin="round"/>
<path d="M323.673 178.671C322.165 177.15 322.625 175.651 322.819 175.15C323.014 174.648 326.357 171.115 326.357 171.115" stroke="#2C2F53" stroke-width="1.24272" stroke-linecap="round" stroke-linejoin="round"/>
<path d="M334.136 156.521C334.36 157.648 334.435 158.621 334.136 158.849C333.838 159.077 326.183 165.378 325.582 166.202C324.982 167.026 324.53 171.38 327.156 171.587C329.783 171.794 330.168 170.846 331.659 170.013C333.536 168.961 336.957 165.846 336.957 165.846" stroke="#2C2F53" stroke-width="1.24272" stroke-linecap="round" stroke-linejoin="round"/>
<path opacity="0.5" d="M302.149 194.296C302.642 192.991 305.541 192.163 307.385 192.275C309.228 192.386 313.843 191.985 315.669 190.589C317.496 189.193 319.236 185.005 323.035 175.676C323.035 175.676 324.257 177.495 325.106 177.548C325.955 177.602 327.848 176.674 327.848 176.674C327.848 176.674 323.768 187.594 323.432 191.003C323.097 194.412 324.215 195.307 328.014 198.327C331.812 201.346 335.843 203.298 335.002 205.037C334.161 206.777 322.645 205.315 316.44 203.749C310.235 202.183 300.736 197.987 302.149 194.296Z" stroke="#505C7B" stroke-width="1.24272" stroke-linecap="round" stroke-linejoin="round"/>
<path opacity="0.5" d="M332.388 156.29C332.388 156.29 328.635 156.062 327.268 154.073" stroke="#505C7B" stroke-width="1.24272" stroke-linecap="round" stroke-linejoin="round"/>
<path opacity="0.5" d="M334.049 160.519C334.049 160.519 327.421 166.525 327.272 166.355C327.123 166.185 328.362 159.28 327.533 154.4" stroke="#505C7B" stroke-width="1.24272" stroke-linecap="round" stroke-linejoin="round"/>
<path opacity="0.5" d="M335.615 156.522C340.023 155.739 348.734 151.824 355.258 139.5" stroke="#505C7B" stroke-width="1.24272" stroke-linecap="round" stroke-linejoin="round"/>
<path opacity="0.5" d="M318.221 144.305C316.846 137.62 317.061 134.215 319.091 129.215C321.121 124.215 327.612 109.02 332.467 93.2917" stroke="#505C7B" stroke-width="1.24272" stroke-linecap="round" stroke-linejoin="round"/>
<path opacity="0.5" d="M354.166 96.699C354.296 95.8718 349.539 94.4355 343.541 93.4909C337.543 92.5463 332.576 92.4511 332.445 93.2783C332.315 94.1054 337.072 95.5416 343.07 96.4862C349.067 97.4308 354.035 97.5261 354.166 96.699Z" stroke="#505C7B" stroke-width="1.24272" stroke-linecap="round" stroke-linejoin="round"/>
<path opacity="0.75" d="M335.735 135.544C342.914 135.544 348.734 134.704 348.734 133.668C348.734 132.631 342.914 131.791 335.735 131.791C328.556 131.791 322.736 132.631 322.736 133.668C322.736 134.704 328.556 135.544 335.735 135.544Z" fill="#F06082"/>
<path opacity="0.25" d="M263.086 202.701C266.627 200.266 269.981 197.568 273.119 194.632C273.119 194.632 271.777 188.99 272.783 186.836C273.79 184.682 274.08 180.983 274.084 173.94C274.084 171.621 259.233 172.354 258.786 174.868C258.451 176.761 259.296 182.109 260.443 182.892C261.591 183.675 262.597 184.247 262.597 188.277C262.597 192.308 263.086 202.701 263.086 202.701Z" fill="#505C7B"/>
<path opacity="0.25" d="M263.376 240.525C263.446 240.144 276.631 225.418 276.631 225.418C276.631 225.418 279.639 234.714 280.277 239.635C280.915 244.556 284.378 260.322 284.005 261.871C283.632 263.42 280.177 268.25 274.063 268.342C267.949 268.433 262.05 266.975 261.305 264.058C260.559 261.142 261.28 251.639 263.376 240.525Z" fill="#505C7B"/>
<path opacity="0.5" d="M269.519 237.68C269.208 245.517 269.771 251.723 274.075 261.42" stroke="#505C7B" stroke-width="1.24272" stroke-linecap="round" stroke-linejoin="round"/>
<path opacity="0.5" d="M267.05 194.354C266.773 188.899 266.773 183.434 267.05 177.979" stroke="#505C7B" stroke-width="1.24272" stroke-linecap="round" stroke-linejoin="round"/>
<path opacity="0.25" d="M267.423 173.795C268.724 158.539 271.797 132.583 274.68 125.884" stroke="#505C7B" stroke-width="1.24272" stroke-linecap="round" stroke-linejoin="round"/>
<path opacity="0.25" d="M267.854 146.58C267.522 142.79 265.136 141.717 261.922 140.068C258.707 138.419 255.824 137.649 255.004 136.754C254.184 135.859 253.517 139.488 255.497 142.703C257.477 145.917 260.522 148.001 265.878 148.03" stroke="#505C7B" stroke-width="1.24272" stroke-linecap="round" stroke-linejoin="round"/>
<path opacity="0.25" d="M270.314 147.665C272.829 150.511 274.825 152.019 276.631 152.325C278.437 152.632 280.691 153.253 283.914 151.236C287.137 149.219 291.064 146.381 291.258 145.739C291.453 145.097 289.133 143.734 286.362 143.415C283.591 143.096 277.911 144.774 274.084 147.669" stroke="#505C7B" stroke-width="1.24272" stroke-linecap="round" stroke-linejoin="round"/>
<path d="M270.774 101.258C273.342 101.672 279.059 104.779 282.182 107.107" stroke="#F06082" stroke-width="1.24272" stroke-linecap="round" stroke-linejoin="round"/>
<path d="M290.492 98.5564C290.861 99.5477 290.843 100.642 290.44 101.62C290.038 102.599 289.281 103.389 288.321 103.834C286.37 104.708 279.088 105.702 278.38 104.269C277.671 102.835 280.836 100.69 283.189 100.449C285.542 100.209 287.174 100.69 286.379 102.04" stroke="#F06082" stroke-width="1.24272" stroke-linecap="round" stroke-linejoin="round"/>
<path opacity="0.75" d="M588.844 186.803C588.55 204.545 590.021 236.586 592.374 254.225C594.727 271.863 595.799 284.58 596.45 287.293C598.521 295.968 627.348 312.914 646.755 384.743" stroke="#F06082" stroke-width="1.24272" stroke-linecap="round" stroke-linejoin="round"/>
<path opacity="0.75" d="M495.653 86.5765V121.236" stroke="#F06082" stroke-width="1.24272" stroke-linecap="round" stroke-linejoin="round"/>
<path opacity="0.75" d="M495.868 129.703C497.573 129.703 498.954 128.322 498.954 126.617C498.954 124.913 497.573 123.531 495.868 123.531C494.164 123.531 492.782 124.913 492.782 126.617C492.782 128.322 494.164 129.703 495.868 129.703Z" fill="#F06082"/>
<path d="M433.529 206.301C440.965 210.915 444.759 209.959 449.954 217.092C456.536 226.126 453.951 228.036 450.679 234.436C447.406 240.836 440.464 251.329 452.042 259.638" stroke="#505C7B" stroke-width="1.24272" stroke-linecap="round" stroke-linejoin="round"/>
<path d="M454.879 80.3053C456.485 80.3053 457.787 79.0034 457.787 77.3973C457.787 75.7913 456.485 74.4894 454.879 74.4894C453.273 74.4894 451.971 75.7913 451.971 77.3973C451.971 79.0034 453.273 80.3053 454.879 80.3053Z" fill="#2C2F53"/>
<path d="M438.202 84.8871C439.549 84.8871 440.642 83.7947 440.642 82.4472C440.642 81.0997 439.549 80.0073 438.202 80.0073C436.854 80.0073 435.762 81.0997 435.762 82.4472C435.762 83.7947 436.854 84.8871 438.202 84.8871Z" fill="#2C2F53"/>
<path d="M485.537 69.0132C487.704 75.2951 489.525 81.6909 490.993 88.1718" stroke="#2C2F53" stroke-width="1.24272" stroke-linecap="round" stroke-linejoin="round"/>
<path d="M455.811 76.8918C457.621 76.4237 459.61 74.9366 459.954 73.5365" stroke="#2C2F53" stroke-width="1.24272" stroke-linecap="round" stroke-linejoin="round"/>
<path d="M431.578 80.9886C432.941 81.9828 435.72 83.3871 438.032 81.9455" stroke="#2C2F53" stroke-width="1.24272" stroke-linecap="round" stroke-linejoin="round"/>
<path d="M445.186 66.8261C448.467 61.7351 451.698 60.1983 454.879 59.9663C458.061 59.7344 461.859 61.7351 462.853 63.3962" stroke="#2C2F53" stroke-width="1.24272" stroke-linecap="round" stroke-linejoin="round"/>
<path d="M430.957 70.2145C434.42 70.0322 440.861 73.7976 441.528 79.6302C442.195 85.4627 441.163 96.0921 441.114 97.8567C441.064 99.6214 442.145 99.9279 443.599 100.106C445.053 100.284 449.734 99.1326 451.192 98.1633" stroke="#2C2F53" stroke-width="1.24272" stroke-linecap="round" stroke-linejoin="round"/>
<path d="M492.343 97.9565C491.597 101.556 489.994 105.264 488.267 107.683C482.741 115.413 478.806 120.831 471.411 124.522" stroke="#2C2F53" stroke-width="1.24272" stroke-linecap="round" stroke-linejoin="round"/>
<path d="M499.522 89.1656C496.295 93.1382 492.778 93.5027 492.778 93.5027" stroke="#2C2F53" stroke-width="1.24272" stroke-linecap="round" stroke-linejoin="round"/>
<path d="M451.975 113.573C455.049 113.987 456.88 113.503 459.941 111.034" stroke="#2C2F53" stroke-width="1.24272" stroke-linecap="round" stroke-linejoin="round"/>
<path d="M447.568 109.526C450.728 110.122 452.41 110.623 455.956 107.674C459.502 104.725 460.67 103.217 461.341 102.322C462.012 101.427 460.38 101.908 459.419 102.322C458.458 102.736 454.688 103.838 453.727 106.096C452.766 108.353 452.352 107.989 451.171 107.604C448.255 106.647 445.906 109.215 447.568 109.526Z" fill="#2C2F53"/>
<path d="M479.025 135.61C482.679 143.56 484.824 148.659 484.824 148.659" stroke="#2C2F53" stroke-width="1.24272" stroke-linecap="round" stroke-linejoin="round"/>
<path opacity="0.5" d="M358.129 134.463C355.644 129.757 355.437 128.854 355.258 119.985C355.08 111.116 353.962 94.3021 354.202 92.9517C354.683 90.2467 371.869 85.9593 379.819 87.5666C381.061 87.8151 382.615 96.0502 385.009 103.912C387.403 111.775 391.869 124.388 391.869 131.02C391.869 137.652 388.911 145.158 381.405 149.073" stroke="#505C7B" stroke-width="1.24272" stroke-linecap="round" stroke-linejoin="round"/>
<path opacity="0.5" d="M378.12 87.1113C378.223 87.1748 378.313 87.2545 378.39 87.3474C379.516 88.7766 372.263 90.9638 363.183 92.2976C356.501 93.2794 354.873 92.8651 354.873 92.0615" stroke="#505C7B" stroke-width="1.24272" stroke-linecap="round" stroke-linejoin="round"/>
<path opacity="0.75" d="M375.478 133.613C382.262 133.064 387.687 131.692 387.594 130.55C387.502 129.407 381.927 128.927 375.143 129.476C368.359 130.025 362.935 131.397 363.027 132.539C363.12 133.682 368.694 134.162 375.478 133.613Z" fill="#F06082"/>
<path d="M357.947 145.006C360.388 144.894 362.834 144.934 365.271 145.126" stroke="#2C2F53" stroke-width="1.24272" stroke-linecap="round" stroke-linejoin="round"/>
<path d="M380.158 148.017C383.153 149.628 384.483 150.672 384.483 151.48C384.483 152.288 381.679 154.993 380.722 155.299C379.765 155.606 372.536 154.69 372.536 154.69" stroke="#2C2F53" stroke-width="1.24272" stroke-linecap="round" stroke-linejoin="round"/>
<path d="M357.33 154.401C361.961 153.489 369.889 153.758 370.859 154.073C371.828 154.388 382.748 158.576 383.945 159.396C385.142 160.216 384.094 163.079 380.73 166.36" stroke="#2C2F53" stroke-width="1.24272" stroke-linecap="round" stroke-linejoin="round"/>
<path d="M357.002 164.085C358.142 162.308 359.074 162.308 363.386 162.776C367.698 163.244 375.681 164.085 375.681 164.085" stroke="#2C2F53" stroke-width="1.24272" stroke-linecap="round" stroke-linejoin="round"/>
<path d="M361.074 170.908C365.403 171.061 371.952 171.737 373.029 171.977C374.106 172.217 378 168.924 378 165.792" stroke="#2C2F53" stroke-width="1.24272" stroke-linecap="round" stroke-linejoin="round"/>
<g opacity="0.25">
<path opacity="0.25" d="M341.414 407.762C339.463 405.161 338.49 406.934 338.324 410.525C338.159 414.117 337.496 434.58 332.471 447.583" stroke="#505C7B" stroke-width="1.24272" stroke-linecap="round" stroke-linejoin="round"/>
<path opacity="0.25" d="M376.849 406.685C375.747 420.09 377.337 423.205 376.849 442.873" stroke="#505C7B" stroke-width="1.24272" stroke-linecap="round" stroke-linejoin="round"/>
<path opacity="0.25" d="M392.747 404.237C392.747 409.763 394.404 413.206 395.146 419.978C395.887 426.751 398.17 435.72 397.631 442.194" stroke="#505C7B" stroke-width="1.24272" stroke-linecap="round" stroke-linejoin="round"/>
<path opacity="0.25" d="M506.046 393.094C505.793 403.57 508.192 427.67 508.821 429.961" stroke="#505C7B" stroke-width="1.24272" stroke-linecap="round" stroke-linejoin="round"/>
<path opacity="0.25" d="M515.888 358.012C515.764 365.468 518.539 371.268 520.304 378.96C522.069 386.653 525.983 399.672 528.129 410.761C530.275 421.851 533.928 432.592 535.32 435.748" stroke="#505C7B" stroke-width="1.24272" stroke-linecap="round" stroke-linejoin="round"/>
<path opacity="0.25" d="M530.325 329.437C530.325 338.447 532.856 345.133 536.174 359.337C539.492 373.541 542.18 385.716 544.873 395.198C547.565 404.68 551.194 419.7 552.143 422.389" stroke="#505C7B" stroke-width="1.24272" stroke-linecap="round" stroke-linejoin="round"/>
<path opacity="0.25" d="M295.351 390.248C312.335 392.795 378.162 399.8 423.455 387.278" stroke="#505C7B" stroke-width="1.24272" stroke-linecap="round" stroke-linejoin="round"/>
<path opacity="0.25" d="M435.691 382.849C450.828 379.95 492.442 367.668 520.312 338.327" stroke="#505C7B" stroke-width="1.24272" stroke-linecap="round" stroke-linejoin="round"/>
<path opacity="0.25" d="M418.795 254.642C428.985 255.491 437.1 256.299 441.673 256.912C471.693 260.818 508.478 273.78 513.051 287.313" stroke="#505C7B" stroke-width="1.24272" stroke-linecap="round" stroke-linejoin="round"/>
<path opacity="0.25" d="M343.2 250.79C359.836 250.972 378.033 251.813 394.421 252.861" stroke="#505C7B" stroke-width="1.24272" stroke-linecap="round" stroke-linejoin="round"/>
<path opacity="0.25" d="M299.651 252.149C306.326 251.685 313.669 251.302 321.68 251.001C326.108 250.844 330.822 250.765 335.731 250.757" stroke="#505C7B" stroke-width="1.24272" stroke-linecap="round" stroke-linejoin="round"/>
<path opacity="0.25" d="M280.852 253.797C284.857 253.364 289.241 252.949 294.005 252.555" stroke="#505C7B" stroke-width="1.24272" stroke-linecap="round" stroke-linejoin="round"/>
<path opacity="0.25" d="M265.588 255.786C268.939 255.26 272.796 254.73 277.166 254.216" stroke="#505C7B" stroke-width="1.24272" stroke-linecap="round" stroke-linejoin="round"/>
<path opacity="0.25" d="M251.255 258.719C253.517 258.035 257.344 257.161 262.75 256.233" stroke="#505C7B" stroke-width="1.24272" stroke-linecap="round" stroke-linejoin="round"/>
</g>
<path d="M372.362 180.809C373.899 181.132 376.31 180.809 376.31 180.809" stroke="#2C2F53" stroke-width="1.24272" stroke-linecap="round" stroke-linejoin="round"/>
<path d="M408.517 212.714C412.912 219.756 415.166 224.138 415.381 240.327" stroke="#2C2F53" stroke-width="1.24272" stroke-linecap="round" stroke-linejoin="round"/>
<path opacity="0.1" d="M306.925 263.284C307.376 262.012 308.764 262.115 312.438 262.455C316.113 262.795 323.167 262.434 324.729 262.244C326.291 262.053 327.786 262.447 327.629 267.583C327.517 271.386 327.629 275.968 327.181 278.652C326.734 281.336 326.904 282.566 319.746 282.678C312.588 282.79 305.715 283.014 305.939 279.547C306.059 277.666 306.602 274.348 306.768 270.661C306.95 267.538 306.705 263.901 306.925 263.284Z" fill="#505C7B"/>
<g opacity="0.5">
<path opacity="0.5" d="M309.141 263.988C310.661 265.161 312.455 265.368 323.225 265.231" stroke="#54C3E5" stroke-width="1.24272" stroke-linecap="round" stroke-linejoin="round"/>
<path opacity="0.5" d="M316.796 265.268C316.723 264.196 316.723 263.121 316.796 262.049" stroke="#54C3E5" stroke-width="1.24272" stroke-linecap="round" stroke-linejoin="round"/>
</g>
<path opacity="0.25" d="M316.747 245.712C318.08 245.297 318.921 247.679 319.265 250.111C319.609 252.542 319.497 257.749 318.996 259.87C318.495 261.991 318.006 262.592 316.763 262.588C315.52 262.584 314.903 262.302 314.692 259.754C314.481 257.207 315.069 255.914 315.657 253.802C316.796 249.647 315.616 246.055 316.747 245.712Z" fill="#F06082"/>
<g opacity="0.5">
<path opacity="0.5" d="M303.222 237.365C315.234 240.791 323.602 240.463 330.458 237.68" stroke="#54C3E5" stroke-width="1.24272" stroke-linecap="round" stroke-linejoin="round"/>
<path opacity="0.5" d="M302.609 282.347C297.977 279.812 292.82 272.43 291.768 262.049C290.716 251.668 295.003 242.033 298.586 237.365" stroke="#54C3E5" stroke-width="1.24272" stroke-linecap="round" stroke-linejoin="round"/>
<path opacity="0.5" d="M344.232 254.125C344.388 256.831 344.185 259.546 343.627 262.199C341.179 273.868 331.912 283.66 326.146 284.795C322.223 285.57 314.899 285.33 309.162 284.303" stroke="#54C3E5" stroke-width="1.24272" stroke-linecap="round" stroke-linejoin="round"/>
<path opacity="0.5" d="M338.188 237.68C339.803 239.54 342.073 243.342 343.333 248.379" stroke="#54C3E5" stroke-width="1.24272" stroke-linecap="round" stroke-linejoin="round"/>
<path opacity="0.5" d="M300.952 235.318C305.061 232.783 306.233 232.005 316.747 231.909C322.96 231.86 328.279 232.738 332.206 234.113" stroke="#54C3E5" stroke-width="1.24272" stroke-linecap="round" stroke-linejoin="round"/>
<path opacity="0.5" d="M301.643 278.412C303.4 277.608 306.134 277.645 306.134 277.645" stroke="#54C3E5" stroke-width="1.24272" stroke-linecap="round" stroke-linejoin="round"/>
<path opacity="0.5" d="M327.281 278.027C328.433 278.227 329.493 278.783 330.313 279.618" stroke="#54C3E5" stroke-width="1.24272" stroke-linecap="round" stroke-linejoin="round"/>
</g>
<path opacity="0.1" d="M414.992 307.926C416.09 307.044 418.923 306.783 422.448 306.998C425.973 307.214 431.885 306.998 434.101 306.858C436.317 306.717 438.575 306.211 438.521 310.93C438.467 315.648 438.061 328.659 437.332 329.947C437.332 329.947 432.742 324.637 431.744 324.396C430.745 324.156 425.025 324.086 425.025 324.086C425.025 324.086 425.526 321.439 425.095 321.228C424.664 321.016 414.114 322.056 414.114 322.056C414.114 322.056 414.143 319.724 414.37 316.157C414.561 312.806 414.565 308.266 414.992 307.926Z" fill="#505C7B"/>
<g opacity="0.5">
<path opacity="0.5" d="M401.96 318.427C395.721 306.886 396.989 290.984 405.688 279.65" stroke="#54C3E5" stroke-width="1.24272" stroke-linecap="round" stroke-linejoin="round"/>
<path opacity="0.5" d="M410.096 279.965C412.995 280.102 416.201 281.746 424.089 282.297C431.976 282.848 438.492 281.953 440.89 279.348" stroke="#54C3E5" stroke-width="1.24272" stroke-linecap="round" stroke-linejoin="round"/>
<path opacity="0.5" d="M408.542 277.127C413.161 274.853 414.636 274.182 420.389 273.913C426.143 273.644 437.949 273.913 443.193 276.055" stroke="#54C3E5" stroke-width="1.24272" stroke-linecap="round" stroke-linejoin="round"/>
<path opacity="0.5" d="M455.165 293.635C456.851 302.16 456.677 320.917 439.768 330.2" stroke="#54C3E5" stroke-width="1.24272" stroke-linecap="round" stroke-linejoin="round"/>
<path opacity="0.5" d="M446.549 277.931C450.923 281.775 452.431 284.654 454.042 289.642" stroke="#54C3E5" stroke-width="1.24272" stroke-linecap="round" stroke-linejoin="round"/>
<path opacity="0.5" d="M437.311 324.396C439.751 324.524 440.907 325.937 440.907 325.937" stroke="#54C3E5" stroke-width="1.24272" stroke-linecap="round" stroke-linejoin="round"/>
<path opacity="0.5" d="M417.473 309.016C418.26 310.354 420.704 310.59 432.8 310.159" stroke="#54C3E5" stroke-width="1.24272" stroke-linecap="round" stroke-linejoin="round"/>
<path opacity="0.5" d="M425.783 307.719C425.741 309.135 425.783 310.357 425.783 310.357" stroke="#54C3E5" stroke-width="1.24272" stroke-linecap="round" stroke-linejoin="round"/>
</g>
<path opacity="0.25" d="M425.783 308.411C427.233 308.552 428.177 307.297 428.79 305.35C429.403 303.403 429.006 296.962 428.79 294.696C428.575 292.43 427.709 291.672 427.025 289.837C426.342 288.002 425.224 288.594 425.132 289.298C425.041 290.002 425.795 292.935 425.132 294.915C424.47 296.895 424.035 297.434 423.927 300.565C423.819 303.697 423.571 308.196 425.783 308.411Z" fill="#F06082"/>
<g opacity="0.25">
<path opacity="0.25" d="M313.404 333.369L303.756 335.949" stroke="#F06082" stroke-width="1.24272" stroke-linecap="round" stroke-linejoin="round"/>
<path opacity="0.25" d="M254.648 305.196C255.832 308.552 254.913 308.253 257 309.538C259.088 310.822 302.318 335.916 302.608 335.95C302.898 335.983 302.637 331.637 302.637 331.637" stroke="#F06082" stroke-width="1.24272" stroke-linecap="round" stroke-linejoin="round"/>
<path opacity="0.25" d="M307.621 330.229C305.135 330.942 303.226 331.658 302.347 331.658C301.469 331.658 255.033 304.579 255.033 304.579C255.033 304.579 322.906 285.839 327.844 284.248" stroke="#F06082" stroke-width="1.24272" stroke-linecap="round" stroke-linejoin="round"/>
<path opacity="0.25" d="M332.603 283.904C334.302 284.836 338.461 286.647 338.461 286.647" stroke="#F06082" stroke-width="1.24272" stroke-linecap="round" stroke-linejoin="round"/>
<path opacity="0.25" d="M350.072 285.251C359.918 291.336 381.575 303.15 391.082 306.402" stroke="#F06082" stroke-width="1.24272" stroke-linecap="round" stroke-linejoin="round"/>
<path opacity="0.25" d="M391.521 315.42C387.072 315.983 375.229 319.305 360.565 322.126C345.901 324.947 317.952 333.783 317.011 333.783C316.071 333.783 305.168 326.389 295.077 321.812C284.986 317.234 270.824 309.339 270.824 309.339" stroke="#F06082" stroke-width="1.24272" stroke-linecap="round" stroke-linejoin="round"/>
<path opacity="0.25" d="M320.694 325.167C329.961 323.021 340.184 320.221 354.173 317.25C368.162 314.28 386.865 311.48 386.865 311.48" stroke="#F06082" stroke-width="1.24272" stroke-linecap="round" stroke-linejoin="round"/>
<path opacity="0.25" d="M299.531 303.647C306.2 303.341 308.031 303.734 306.809 305.192C305.587 306.65 305.893 308.531 309.709 308.738C313.524 308.945 318.768 308.688 319.327 310.47C319.886 312.251 316.784 313.117 318.461 315.407C320.139 317.698 326.962 316.58 326.962 316.58" stroke="#F06082" stroke-width="1.24272" stroke-linecap="round" stroke-linejoin="round"/>
<path opacity="0.25" d="M313.085 331.658C314.203 329.69 315.301 328.046 314.742 327.516C314.182 326.985 300.616 318.738 292.455 314.674C286.731 311.913 280.872 309.441 274.9 307.268" stroke="#F06082" stroke-width="1.24272" stroke-linecap="round" stroke-linejoin="round"/>
<path opacity="0.25" d="M269.747 308.548C269.83 306.742 270.115 304.36 270.575 304.111C271.035 303.863 282.895 300.458 298.085 296.721C313.275 292.985 345.387 284.978 346.7 284.526" stroke="#F06082" stroke-width="1.24272" stroke-linecap="round" stroke-linejoin="round"/>
</g>
<g opacity="0.25">
<path opacity="0.25" d="M393.211 307.719C395.402 310.784 394.777 311.787 393.965 313.104" stroke="#F06082" stroke-width="1.24272" stroke-linecap="round" stroke-linejoin="round"/>
<path opacity="0.25" d="M271.768 303.705C271.313 304.281 270.828 304.927 271.574 305.541C272.178 305.986 272.842 306.346 273.545 306.609" stroke="#F06082" stroke-width="1.24272" stroke-linecap="round" stroke-linejoin="round"/>
</g>
<path opacity="0.3" d="M473.189 102.173C480.372 102.173 486.196 96.3497 486.196 89.1661C486.196 81.9824 480.372 76.1589 473.189 76.1589C466.005 76.1589 460.181 81.9824 460.181 89.1661C460.181 96.3497 466.005 102.173 473.189 102.173Z" fill="#DC6437"/>
<path opacity="0.75" d="M480.616 208.335C495.785 211.62 501.618 219.61 495.785 223.496C489.953 227.381 483.797 222.759 480.616 208.335Z" stroke="#F06082" stroke-width="1.24272" stroke-linecap="round" stroke-linejoin="round"/>
<path opacity="0.75" d="M480.616 208.335C478.959 217.382 474.344 222.879 471.469 220.878C468.595 218.877 471.9 212.403 480.616 208.335Z" stroke="#F06082" stroke-width="1.24272" stroke-linecap="round" stroke-linejoin="round"/>
<path opacity="0.25" d="M219.545 285.524C225.808 280.553 240.572 275.044 240.199 273.06C236.222 251.85 230.522 240.682 228.538 236.097C226.554 231.511 225.436 226.047 224.81 224.498C224.185 222.949 223.199 222.212 221.707 222.274C220.216 222.336 219.475 224.444 219.04 224.817C218.605 225.19 218.294 225.501 215.195 226.553C212.097 227.605 210.606 228.164 209.181 228.413C207.756 228.661 207.88 229.776 207.445 232.07C207.445 232.07 208.062 236.163 208.804 239.858C209.545 243.553 211.082 248.557 211.969 252.153C212.855 255.748 214.504 262.857 215.026 266.349C215.548 269.841 217.097 282.16 219.545 285.524Z" fill="#54C3E5"/>
<path d="M211.923 119.567L200.581 134.152C198.709 127.367 197.019 120.068 197.317 118.162C197.839 114.811 200.602 104.907 201.306 102.421C202.507 108.361 206.227 115.876 211.923 119.567Z" fill="#2C2F53"/>
</svg>
