<svg width="122" height="122" viewBox="0 0 122 122" fill="none" xmlns="http://www.w3.org/2000/svg">
<path fill-rule="evenodd" clip-rule="evenodd" d="M61 122C94.6894 122 122 94.6894 122 61C122 27.3106 94.6894 0 61 0C27.3106 0 0 27.3106 0 61C0 94.6894 27.3106 122 61 122ZM61.147 113.181C90.0468 113.181 113.475 89.7528 113.475 60.853C113.475 31.9532 90.0468 8.5253 61.147 8.5253C32.2472 8.5253 8.81927 31.9532 8.81927 60.853C8.81927 89.7528 32.2472 113.181 61.147 113.181Z" fill="white"/>
<path d="M76.4658 11.1705C76.5493 13.7713 77.2354 16.2445 78.5241 18.5899C80.5153 22.771 86.4868 30.1914 96.4384 40.8512L108.002 38.4037L108.004 38.4038C105.917 34.0733 103.189 29.9845 99.8207 26.1372C93.1383 18.8839 85.3539 13.895 76.4676 11.1706L76.4658 11.1705Z" fill="#6C411C"/>
<path d="M46.1705 10.9417C38.8291 13.0883 32.0923 16.8633 25.9603 22.2667C15.4358 32.1379 9.73439 44.1393 8.85605 58.271C8.36368 72.6958 12.8152 85.2427 22.2107 95.9116C26.1917 100.174 30.5264 103.648 35.2148 106.334C36.8324 102.923 37.6646 100.557 37.7114 99.2361C37.7534 98.7253 37.7244 98.2228 37.6246 97.7288C36.6325 95.0323 36.1511 93.148 36.1804 92.0759C36.051 90.286 36.2702 87.1886 36.8379 82.7837C40.8955 79.5489 42.8013 76.9728 42.5554 75.0552C42.7087 72.8203 39.9599 69.2246 34.309 64.2681C40.9627 57.3887 44.4636 53.0046 44.8114 51.1158C45.1593 50.074 44.9755 49.1275 44.2601 48.2765C43.9808 47.947 43.5186 47.5986 42.8735 47.2314L40.0425 45.8976C41.2782 43.8397 42.5828 42.2511 43.9565 41.1319C44.1535 40.7742 46.529 39.2143 51.083 36.4521C51.9655 35.8355 52.7352 35.1826 53.3918 34.4934C54.8377 32.9786 55.542 31.2793 55.5047 29.3955C55.6564 26.1183 52.5455 19.967 46.172 10.9417L46.1705 10.9417Z" fill="#FFCC9F"/>
<path d="M80.6975 14.6093C78.7126 14.4783 76.7872 15.1152 74.9213 16.5199C72.5065 18.4379 70.871 21.3663 70.0146 25.3051C68.2788 33.6647 69.6549 43.8868 74.1431 55.9712C78.2641 66.7041 81.8378 73.8195 84.8643 77.3176C85.7915 78.6074 87.177 79.313 89.0207 79.4347C90.6407 79.5415 92.6145 79.1975 94.942 78.4026L97.9755 97.6953C107.18 88.256 112.21 76.9602 113.064 63.8078C113.404 54.5743 111.717 46.1053 108.003 38.4009L108.005 38.401C107.956 38.3975 107.908 38.3942 107.859 38.391C106.696 38.3143 105.47 38.3236 104.179 38.4188C103.841 38.3966 103.548 38.4447 103.298 38.5632C102.214 39.1527 100.509 39.5787 98.1833 39.8411C98.9086 35.2936 98.8166 32.4224 97.9073 31.2275L93.1757 26.1685C89.6492 21.1965 87.6438 18.5307 87.1594 18.171C85.8187 16.6982 84.4617 15.6838 83.0883 15.1278C82.282 14.8341 81.485 14.6612 80.6975 14.6093Z" fill="#FFCC9F"/>
<path d="M86.6224 37.2595C86.4523 37.2601 86.2827 37.2863 86.1135 37.338L86.093 37.3445C84.5031 38.0125 83.2183 40.0249 82.2387 43.382C81.4788 46.2561 81.4857 49.0262 82.2594 51.6923C82.828 53.5392 83.6862 54.9834 84.834 56.0247C85.9364 57.1112 87.911 58.1213 90.7577 59.0548L93.6021 62.2072C94.6803 61.9318 95.0445 61.3494 94.6946 60.46C94.5959 60.1677 94.4066 59.7947 94.1266 59.3411C92.3539 56.7417 91.3448 55.1737 91.0993 54.6373C90.53 53.573 90.1957 52.6692 90.0966 51.926C90.0152 51.3619 90.0232 50.7683 90.1203 50.1452C90.1018 50.0487 90.3476 48.9828 90.8577 46.9476C90.9605 46.4392 91.024 45.9496 91.0481 45.4786C91.1064 44.5004 90.9563 43.4087 90.5978 42.2037C90.0831 40.5598 89.3921 39.2571 88.5249 38.2956C87.8848 37.6023 87.2506 37.2569 86.6224 37.2595ZM78.9261 20.9355C76.9349 21.0046 75.4452 22.9524 74.4568 26.7789C73.3607 31.2178 72.8077 37.1132 72.7978 44.4651C72.9036 48.1246 73.4797 51.3494 74.5262 54.1394C75.6583 57.2388 77.566 60.7787 80.2491 64.759L79.3945 60.0276C77.5761 57.0866 76.3659 54.5846 75.7638 52.5214C75.2296 50.819 74.8769 48.9433 74.7057 46.8943C74.4708 43.952 74.5981 40.6292 75.0876 36.9257C75.5956 33.3203 76.3109 30.4563 77.2335 28.3338C78.1495 26.1827 79.2258 25.1045 80.4626 25.0995C81.0805 25.097 81.7385 25.3623 82.4365 25.8956C83.5063 26.6536 84.7553 28.0162 86.1835 29.9834C87.4036 31.6319 89.2482 34.5147 91.7172 38.6317C88.2267 31.5913 85.6627 26.9823 84.025 24.8047C82.215 22.2445 80.5187 20.9548 78.9361 20.9355L78.9261 20.9355Z" fill="#FF4900" fill-opacity="0.0941176"/>
<path d="M41.1685 45.6634C40.3579 45.6552 39.5477 46.0472 38.7379 46.8395C38.4394 47.124 38.1076 47.4843 37.7427 47.9203C35.6933 50.5408 34.3574 52.1688 33.735 52.8043C32.741 53.8903 31.5144 55.0491 30.0551 56.2808C28.0487 58.0287 24.1324 60.927 18.3063 64.9756L18.1216 68.2124C19.5198 69.5911 21.8293 71.7827 25.05 74.7871C30.296 79.6856 34.2276 82.1155 36.845 82.0767C38.3078 82.0712 39.582 81.3607 40.6676 79.9454C41.8059 78.4002 42.5218 76.4733 42.8153 74.1648C43.1004 71.8027 42.7437 69.7344 41.7453 67.9598C40.9377 66.3709 39.095 64.4989 36.2171 62.3438C41.5892 57.2231 44.506 53.6132 44.9675 51.5139C45.3845 50.1238 45.2113 48.8195 44.4481 47.601C43.5646 46.3568 42.4771 45.711 41.1855 45.6634" fill="#F2AABB"/>
<path d="M29.0108 63.856L25.4063 63.925C28.2129 65.263 30.2257 66.1638 31.4446 66.6275C32.8621 67.1772 33.9114 67.4631 34.5925 67.485C35.4347 67.5132 35.9396 67.2255 36.1072 66.6219C36.2165 65.8588 35.9289 65.2455 35.2445 64.7822C34.8674 64.5206 34.1769 64.271 33.173 64.0335L29.0242 63.8566" fill="white"/>
<path d="M36.4534 58.5133L24.8109 64.2755C30.4924 62.722 33.9513 61.6162 35.1876 60.9581C35.9442 60.5819 36.414 60.209 36.5971 59.8392C36.7871 59.5119 36.7399 59.0701 36.4557 58.5141" fill="white"/>
<path d="M34.3524 61.0416L25.9507 63.8406C28.8387 63.9674 30.8278 64.0372 31.9179 64.0498C33.0074 64.065 33.6658 64.028 33.8933 63.9387C34.1128 63.8767 34.2337 63.7319 34.2562 63.5042C34.2992 63.2483 34.3318 62.4281 34.3541 61.0434" fill="#1A0202"/>
<path d="M29.6785 25.8934L20.4546 38.6945L33.1296 38.0891C31.0519 37.3431 29.6236 36.6958 28.8449 36.1471C27.9324 35.5333 27.3642 34.8339 27.1403 34.0491C26.9125 33.2665 26.9988 32.2377 27.3992 30.9626C27.7069 29.9232 28.4621 28.2424 29.6648 25.9203" fill="#FF0000" fill-opacity="0.0862745"/>
<path d="M42.5144 33.1248C41.1315 33.1047 38.8338 33.7589 35.6212 35.0875L45.8868 34.1346C45.2389 33.7724 44.6739 33.5178 44.1919 33.3707C43.6584 33.2053 43.1054 33.1233 42.5328 33.1248" fill="black" fill-opacity="0.372549"/>
</svg>
